if (_typeface_js && _typeface_js.loadFace) _typeface_js.loadFace({"glyphs":{"¦":{"x_min":127.9375,"x_max":227.3125,"ha":361,"o":"m 127 -26 l 227 -26 l 227 381 l 127 381 l 127 -26 m 127 638 l 227 638 l 227 1023 l 127 1023 l 127 638 "},"":{"x_min":-55.8125,"x_max":434.1875,"ha":386,"o":"m 434 1204 l 319 1204 l 319 1062 l 434 1062 l 434 1204 m 58 1204 l -55 1204 l -55 1062 l 58 1062 l 58 1204 m 215 1262 l 66 1262 l 176 1062 l 268 1062 l 215 1262 "},"Ѣ":{"x_min":19.0625,"x_max":1039.890625,"ha":1115,"o":"m 307 0 l 730 0 b 1039 293 926 0 1039 116 b 698 586 1039 473 932 586 l 438 586 l 438 726 l 808 726 l 808 843 l 438 843 l 438 997 l 307 997 l 307 843 l 19 843 l 19 726 l 307 726 l 307 0 m 438 469 l 684 469 b 901 293 819 469 901 425 b 713 116 901 159 819 116 l 438 116 l 438 469 "},"Ž":{"x_min":30.984375,"x_max":800.015625,"ha":849,"o":"m 800 119 l 198 119 l 800 880 l 800 997 l 75 997 l 75 877 l 629 877 l 30 112 l 30 0 l 800 0 l 800 119 m 324 1290 l 217 1290 l 352 1094 l 478 1094 l 613 1290 l 504 1290 l 414 1161 l 324 1290 "},"Á":{"x_min":19,"x_max":890,"ha":926,"o":"m 649 290 l 745 0 l 890 0 l 536 997 l 386 997 l 19 0 l 155 0 l 257 290 l 649 290 m 298 409 l 454 848 l 457 848 l 601 409 l 298 409 m 661 1290 l 514 1290 l 393 1094 l 484 1094 l 661 1290 "},"е":{"x_min":53.078125,"x_max":703.703125,"ha":772,"o":"m 577 231 b 383 86 552 165 510 86 b 183 319 259 86 185 177 l 703 319 l 703 381 b 374 748 703 629 568 748 b 53 368 236 748 53 633 b 385 -22 53 104 194 -22 b 695 231 560 -22 676 105 l 577 231 m 183 419 b 383 640 191 547 272 640 b 581 419 500 640 578 561 l 183 419 "},"":{"x_min":-20.21875,"x_max":399,"ha":386,"o":"m 46 1062 b 189 1170 64 1144 118 1170 b 332 1062 260 1170 314 1144 l 399 1062 b 189 1254 388 1165 325 1254 b -20 1062 53 1254 -9 1165 l 46 1062 "},"Î":{"x_min":-8.171875,"x_max":387.921875,"ha":386,"o":"m 255 996 l 123 996 l 123 0 l 255 0 l 255 996 m 189 1223 l 279 1094 l 387 1094 l 253 1289 l 126 1289 l -8 1094 l 99 1094 l 189 1223 "},"e":{"x_min":54.4375,"x_max":702.328125,"ha":772,"o":"m 573 227 b 389 84 568 173 502 84 b 182 323 251 84 182 172 l 702 323 b 396 747 702 580 601 747 b 54 343 160 747 54 568 b 372 -20 54 133 172 -20 b 566 29 487 -20 533 6 b 692 227 656 90 688 193 l 573 227 m 182 420 b 379 637 182 533 269 637 b 578 420 525 637 571 533 l 182 420 "},"»":{"x_min":132.203125,"x_max":624.90625,"ha":772,"o":"m 345 320 l 345 448 l 132 619 l 132 497 l 275 384 l 132 272 l 132 150 l 345 320 m 624 320 l 624 448 l 411 619 l 411 497 l 554 384 l 411 272 l 411 150 l 624 320 "},"∆":{"x_min":0,"x_max":817,"ha":833,"o":"m 615 116 l 128 116 l 388 704 l 615 116 m 0 0 l 817 0 l 435 975 l 0 0 "},"Ѓ":{"x_min":100.71875,"x_max":675.109375,"ha":721,"o":"m 100 0 l 231 0 l 231 880 l 675 880 l 675 997 l 100 997 l 100 0 m 314 1062 l 405 1062 l 583 1262 l 435 1262 l 314 1062 "},"ў":{"x_min":15.078125,"x_max":666,"ha":694,"o":"m 279 -19 l 239 -122 b 152 -186 224 -162 197 -186 b 80 -173 123 -186 96 -179 l 80 -286 b 148 -294 95 -290 113 -294 b 393 -29 277 -294 310 -258 l 666 726 l 531 726 l 341 134 l 339 134 l 149 726 l 15 726 l 279 -19 m 130 1022 b 340 830 141 919 204 830 b 550 1022 476 830 539 919 l 483 1022 b 340 913 465 940 411 913 b 197 1022 269 913 215 940 l 130 1022 "},"ò":{"x_min":47.640625,"x_max":709.140625,"ha":772,"o":"m 47 363 b 378 -19 47 176 151 -19 b 709 363 605 -19 709 176 b 378 747 709 551 605 747 b 47 363 151 747 47 551 m 171 363 b 378 641 171 461 206 641 b 585 363 549 641 585 461 b 378 86 585 266 549 86 b 171 363 206 86 171 266 m 348 823 l 439 823 l 318 1019 l 171 1019 l 348 823 "},"^":{"x_min":-19,"x_max":657,"ha":651,"o":"m 657 366 l 368 955 l 270 955 l -19 366 l 87 366 l 319 844 l 552 366 l 657 366 "},"«":{"x_min":132.09375,"x_max":624.796875,"ha":772,"o":"m 345 272 l 202 384 l 345 497 l 345 619 l 132 448 l 132 320 l 345 150 l 345 272 m 624 272 l 481 384 l 624 497 l 624 619 l 411 448 l 411 320 l 624 150 l 624 272 "},"∙":{"x_min":104.8125,"x_max":274.9375,"ha":386,"o":"m 190 437 b 104 350 145 437 104 401 b 189 263 104 304 142 263 b 274 350 238 263 274 305 b 190 437 274 400 232 437 "},"к":{"x_min":100.71875,"x_max":748.609375,"ha":772,"o":"m 100 0 l 223 0 l 223 236 l 343 350 l 590 0 l 748 0 l 431 433 l 743 726 l 582 726 l 223 381 l 223 726 l 100 726 l 100 0 "},"í":{"x_min":129,"x_max":397.140625,"ha":386,"o":"m 248 726 l 129 726 l 129 0 l 248 0 l 248 726 m 397 1019 l 250 1019 l 129 823 l 220 823 l 397 1019 "},"ˆ":{"x_min":29,"x_max":425,"ha":463,"o":"m 226 953 l 316 824 l 425 824 l 290 1019 l 163 1019 l 29 824 l 136 824 l 226 953 "},"µ":{"x_min":92.5625,"x_max":665.578125,"ha":803,"o":"m 665 0 l 665 726 l 545 726 l 545 326 b 349 84 545 220 500 84 b 212 244 272 84 212 125 l 212 726 l 92 726 l 92 204 l 92 -287 l 212 -287 l 212 26 l 215 26 b 323 -20 246 -15 296 -20 b 549 108 438 -20 499 23 l 552 105 l 552 0 l 665 0 "},"’":{"x_min":72.140625,"x_max":213.6875,"ha":308,"o":"m 72 850 l 144 850 b 72 708 144 802 142 719 l 72 643 b 213 861 182 669 213 754 l 213 997 l 72 997 l 72 850 "},"-":{"x_min":59.890625,"x_max":393.359375,"ha":463,"o":"m 393 447 l 59 447 l 59 322 l 393 322 l 393 447 "},"ѕ":{"x_min":47.640625,"x_max":632.921875,"ha":694,"o":"m 47 228 b 348 -22 53 52 171 -22 b 632 223 540 -22 632 91 b 185 539 632 480 185 371 b 329 648 185 605 236 648 b 496 520 436 648 490 602 l 611 520 b 336 748 609 649 511 748 b 70 516 186 748 70 667 b 518 196 70 260 518 358 b 349 77 518 128 460 77 b 161 228 239 77 167 121 l 47 228 "},"Q":{"x_min":53.234375,"x_max":1006.015625,"ha":1081,"o":"m 571 205 l 673 125 b 529 93 633 104 584 93 b 189 498 317 93 189 264 b 529 904 189 733 317 904 b 869 498 741 904 869 733 b 762 190 869 370 831 261 l 638 289 l 571 205 m 997 2 l 864 108 b 1006 498 967 215 1006 372 b 529 1023 1006 714 894 1023 b 53 498 164 1023 53 714 b 529 -26 53 283 164 -26 b 781 40 633 -26 717 -1 l 931 -77 l 997 2 "},"Ш":{"x_min":100.71875,"x_max":1184.171875,"ha":1311,"o":"m 100 0 l 1184 0 l 1184 997 l 1053 997 l 1053 116 l 707 116 l 707 997 l 577 997 l 577 116 l 231 116 l 231 997 l 100 997 l 100 0 "},"M":{"x_min":99.359375,"x_max":1035.8125,"ha":1157,"o":"m 1035 0 l 1035 997 l 847 997 l 570 154 l 567 154 l 288 997 l 99 997 l 99 0 l 227 0 l 227 588 b 224 836 227 618 224 744 l 227 836 l 502 0 l 632 0 l 907 837 l 910 837 b 907 588 910 744 907 618 l 907 0 l 1035 0 "},"ј":{"x_min":-23.140625,"x_max":212.328125,"ha":308,"o":"m -23 -281 b 21 -286 -8 -284 6 -286 b 212 -101 176 -286 212 -208 l 212 726 l 89 726 l 89 -94 b 0 -177 89 -155 80 -177 l -23 -177 l -23 -281 m 89 847 l 212 847 l 212 988 l 89 988 l 89 847 "},"œ":{"x_min":47.640625,"x_max":1227.71875,"ha":1311,"o":"m 706 420 b 905 637 706 533 794 637 b 1103 420 1050 637 1097 533 l 706 420 m 1098 227 b 914 84 1094 173 1027 84 b 706 323 777 84 706 172 l 1227 323 b 921 747 1227 580 1127 747 b 645 600 797 747 711 704 b 378 747 586 698 491 745 b 47 363 151 747 47 551 b 378 -19 47 176 151 -19 b 634 119 432 -20 568 -9 b 898 -20 700 19 797 -20 b 1091 29 1012 -20 1058 6 b 1218 227 1181 90 1214 193 l 1098 227 m 171 363 b 378 641 171 461 206 641 b 585 363 549 641 585 461 b 378 86 585 266 549 86 b 171 363 206 86 171 266 "},"{":{"x_min":57.171875,"x_max":397.4375,"ha":464,"o":"m 57 325 b 167 144 119 325 167 248 l 167 -93 b 306 -272 167 -206 236 -272 l 397 -272 l 397 -181 l 337 -181 b 274 -68 289 -181 274 -129 l 274 166 b 155 365 266 311 182 356 l 155 368 b 274 562 182 375 266 426 l 274 798 b 337 912 274 861 289 912 l 397 912 l 397 1002 l 306 1002 b 167 823 236 1002 167 937 l 167 584 b 57 408 167 483 119 408 l 57 325 "},"¼":{"x_min":98.671875,"x_max":1029.25,"ha":1158,"o":"m 569 130 l 850 130 l 850 0 l 938 0 l 938 130 l 1029 130 l 1029 211 l 938 211 l 938 586 l 850 586 l 569 213 l 569 130 m 850 211 l 654 211 l 848 470 l 850 470 l 850 211 m 889 976 l 811 976 l 208 -26 l 286 -26 l 889 976 m 245 805 l 245 390 l 338 390 l 338 976 l 266 976 b 98 865 241 880 199 872 l 98 805 l 245 805 "},"#":{"x_min":38,"x_max":720,"ha":772,"o":"m 528 291 l 668 291 l 680 379 l 540 379 l 567 576 l 707 576 l 720 663 l 579 663 l 619 955 l 528 955 l 488 663 l 319 663 l 359 955 l 268 955 l 228 663 l 88 663 l 76 576 l 216 576 l 190 379 l 50 379 l 38 291 l 178 291 l 138 0 l 228 0 l 268 291 l 438 291 l 398 0 l 488 0 l 528 291 m 476 576 l 450 379 l 280 379 l 307 576 l 476 576 "},"Ê":{"x_min":117.0625,"x_max":838.453125,"ha":926,"o":"m 838 119 l 249 119 l 249 452 l 784 452 l 784 571 l 249 571 l 249 877 l 828 877 l 828 996 l 117 996 l 117 0 l 838 0 l 838 119 m 453 1223 l 543 1094 l 651 1094 l 517 1289 l 390 1289 l 255 1094 l 363 1094 l 453 1223 "},"Џ":{"x_min":100.71875,"x_max":882,"ha":1003,"o":"m 100 0 l 426 0 l 426 -213 l 556 -213 l 556 0 l 882 0 l 882 997 l 743 997 l 743 116 l 239 116 l 239 997 l 100 997 l 100 0 "},")":{"x_min":46.28125,"x_max":360.6875,"ha":463,"o":"m 130 -287 b 360 368 277 -73 360 123 b 126 1018 360 627 268 801 l 46 1018 b 232 401 155 800 232 630 b 47 -287 232 68 163 -65 l 130 -287 "},"э":{"x_min":17.6875,"x_max":632.921875,"ha":694,"o":"m 257 309 l 502 309 b 311 86 500 208 441 86 b 142 237 220 86 152 148 l 17 237 b 315 -22 53 59 166 -22 b 632 365 519 -22 632 136 b 315 748 632 590 519 748 b 25 498 187 748 49 672 l 142 498 b 313 640 157 569 206 640 b 502 409 427 640 492 555 l 257 409 l 257 309 "},"":{"x_min":-25.5,"x_max":244,"ha":386,"o":"m 152 1062 l 244 1062 l 122 1262 l -25 1262 l 152 1062 "},"Å":{"x_min":19.0625,"x_max":890.171875,"ha":926,"o":"m 649 290 l 745 0 l 890 0 l 536 997 l 386 997 l 19 0 l 155 0 l 257 290 l 649 290 m 298 409 l 454 848 l 457 848 l 601 409 l 298 409 m 454 1293 b 329 1165 382 1293 329 1238 b 454 1037 329 1091 382 1037 b 579 1165 526 1037 579 1091 b 454 1293 579 1238 526 1293 m 383 1165 b 454 1237 383 1205 415 1237 b 525 1165 494 1237 525 1205 b 454 1093 525 1125 494 1093 b 383 1165 415 1093 383 1125 "},"":{"x_min":-59.21875,"x_max":360,"ha":308,"o":"m 7 822 b 150 930 25 904 79 930 b 293 822 221 930 275 904 l 360 822 b 150 1013 349 925 286 1013 b -59 822 14 1013 -48 925 l 7 822 "},"Ѵ":{"x_min":24.5,"x_max":954.140625,"ha":926,"o":"m 368 0 l 515 0 l 763 736 b 890 905 805 861 826 905 b 954 883 910 905 932 900 l 954 1001 b 872 1022 933 1016 905 1022 b 665 826 749 1022 706 950 l 443 150 l 441 150 l 187 997 l 24 997 l 368 0 "},"ш":{"x_min":89.828125,"x_max":969.109375,"ha":1081,"o":"m 89 0 l 969 0 l 969 726 l 846 726 l 846 108 l 590 108 l 590 726 l 468 726 l 468 108 l 212 108 l 212 726 l 89 726 l 89 0 "},"Я":{"x_min":70.78125,"x_max":871.109375,"ha":1006,"o":"m 871 997 l 466 997 b 225 958 405 997 292 997 b 102 716 163 922 102 844 b 269 476 102 538 213 497 b 127 268 145 437 136 358 l 117 131 b 70 0 110 54 91 23 l 220 0 b 247 119 238 38 243 66 l 254 227 b 322 397 262 336 281 369 b 496 423 355 419 389 423 l 740 423 l 740 0 l 871 0 l 871 997 m 740 536 l 458 536 b 292 569 383 534 338 534 b 231 706 239 609 231 669 b 304 856 231 762 251 826 b 441 879 341 879 396 879 l 740 879 l 740 536 "},"¸":{"x_min":61.125,"x_max":352.40625,"ha":463,"o":"m 107 -119 l 130 -146 b 183 -135 159 -137 171 -135 b 248 -189 202 -135 248 -146 b 172 -247 248 -240 198 -247 b 84 -226 138 -247 118 -240 l 61 -282 b 191 -312 96 -297 141 -312 b 352 -185 292 -312 352 -257 b 238 -80 352 -140 326 -80 b 195 -86 220 -80 210 -83 l 258 0 l 194 0 l 107 -119 "},"a":{"x_min":49,"x_max":721.390625,"ha":772,"o":"m 194 505 b 357 645 202 561 221 645 b 525 527 470 645 525 604 b 462 441 525 455 491 444 l 265 416 b 49 188 66 391 49 250 b 272 -20 49 63 141 -20 b 529 97 411 -20 483 45 b 656 -13 533 41 549 -13 b 721 0 683 -13 700 -5 l 721 88 b 681 83 707 86 692 83 b 642 126 657 83 642 95 l 642 544 b 378 747 642 730 435 747 b 84 505 202 747 89 679 l 194 505 m 522 251 b 302 80 522 154 413 80 b 172 206 212 80 172 127 b 325 325 172 298 266 316 b 522 370 473 344 503 355 l 522 251 "},"=":{"x_min":53.078125,"x_max":741.8125,"ha":811,"o":"m 741 541 l 53 541 l 53 440 l 741 440 l 741 541 m 741 261 l 53 261 l 53 159 l 741 159 l 741 261 "},"Ћ":{"x_min":51.71875,"x_max":975.921875,"ha":1081,"o":"m 298 0 l 428 0 l 428 455 l 664 455 b 845 288 797 455 845 393 l 845 0 l 975 0 l 975 308 b 677 572 975 475 887 572 l 428 572 l 428 880 l 774 880 l 774 997 l 51 997 l 51 880 l 298 880 l 298 0 "},"˚":{"x_min":102.078125,"x_max":352.53125,"ha":463,"o":"m 227 1051 b 102 923 155 1051 102 997 b 227 795 102 850 155 795 b 352 923 299 795 352 850 b 227 1051 352 997 299 1051 m 156 923 b 227 995 156 963 187 995 b 298 923 266 995 298 963 b 227 851 298 883 266 851 b 156 923 187 851 156 883 "},"ú":{"x_min":92.828125,"x_max":665.84375,"ha":772,"o":"m 665 0 l 665 726 l 546 726 l 546 326 b 350 84 546 220 501 84 b 212 244 272 84 212 125 l 212 726 l 92 726 l 92 204 b 324 -20 92 30 219 -20 b 550 108 438 -20 499 23 l 552 105 l 552 0 l 665 0 m 586 1019 l 439 1019 l 318 823 l 409 823 l 586 1019 "},"д":{"x_min":51.515625,"x_max":804.21875,"ha":849,"o":"m 689 -177 l 804 -177 l 804 108 l 717 108 l 717 726 l 252 726 b 145 108 252 515 223 304 l 51 108 l 51 -177 l 165 -177 l 165 0 l 689 0 l 689 -177 m 269 108 b 325 322 281 140 299 190 b 363 618 348 437 356 533 l 594 618 l 594 108 l 269 108 "},"¯":{"x_min":13.609375,"x_max":439.640625,"ha":463,"o":"m 439 950 l 13 950 l 13 870 l 439 870 l 439 950 "},"Z":{"x_min":30.984375,"x_max":800.015625,"ha":849,"o":"m 800 119 l 198 119 l 800 880 l 800 997 l 75 997 l 75 877 l 629 877 l 30 112 l 30 0 l 800 0 l 800 119 "},"u":{"x_min":92.5625,"x_max":665.578125,"ha":772,"o":"m 665 0 l 665 726 l 545 726 l 545 326 b 349 84 545 220 500 84 b 212 244 272 84 212 125 l 212 726 l 92 726 l 92 204 b 323 -20 92 30 219 -20 b 549 108 438 -20 499 23 l 552 105 l 552 0 l 665 0 "},"":{"x_min":-67.734375,"x_max":447,"ha":386,"o":"m 355 1062 l 447 1062 l 325 1262 l 177 1262 l 355 1062 m 110 1062 l 201 1062 l 80 1262 l -67 1262 l 110 1062 "},"k":{"x_min":91.1875,"x_max":681.921875,"ha":694,"o":"m 393 455 l 665 726 l 513 726 l 206 419 l 206 997 l 91 997 l 91 0 l 206 0 l 206 275 l 306 366 l 528 0 l 681 0 l 393 455 "},"Ù":{"x_min":107.53125,"x_max":876.5625,"ha":1003,"o":"m 744 997 l 744 366 b 487 93 744 150 608 93 b 239 369 368 93 239 152 l 239 997 l 107 997 l 107 331 b 483 -26 107 145 220 -26 b 876 350 751 -26 876 145 l 876 997 l 744 997 m 461 1094 l 552 1094 l 431 1290 l 284 1290 l 461 1094 "},"З":{"x_min":39.46875,"x_max":792.171875,"ha":849,"o":"m 363 470 l 458 470 b 661 288 596 470 661 393 b 416 91 661 147 552 91 b 167 287 250 91 182 177 l 39 287 b 428 -25 62 61 225 -25 b 792 281 605 -25 792 79 b 619 534 792 426 720 505 l 619 537 b 751 748 715 573 751 645 b 431 1022 751 929 607 1022 b 70 684 259 1022 91 944 l 193 684 b 427 905 205 802 279 905 b 628 733 528 905 628 856 b 466 579 628 656 578 579 l 363 579 l 363 470 "},"¢":{"x_min":69.421875,"x_max":698.25,"ha":772,"o":"m 288 108 b 189 340 230 146 189 240 b 396 641 189 551 280 641 b 435 637 415 641 424 641 l 288 108 m 692 479 b 517 726 676 648 566 712 l 551 865 l 498 865 l 462 739 b 404 747 449 744 431 747 b 69 340 193 747 69 601 b 257 0 69 161 152 50 l 210 -159 l 266 -159 l 308 -16 b 390 -25 343 -21 368 -25 b 698 254 613 -25 686 153 l 582 254 b 386 79 549 108 469 79 b 338 85 362 79 352 81 l 488 621 b 581 479 552 596 570 525 l 692 479 "},"é":{"x_min":53.984375,"x_max":701.859375,"ha":772,"o":"m 572 227 b 388 84 568 173 501 84 b 181 323 251 84 181 172 l 701 323 b 395 747 701 580 601 747 b 53 343 160 747 53 568 b 372 -20 53 133 172 -20 b 565 29 486 -20 533 6 b 692 227 655 90 688 193 l 572 227 m 181 420 b 379 637 181 533 269 637 b 578 420 524 637 571 533 l 181 420 m 586 1019 l 439 1019 l 318 823 l 409 823 l 586 1019 "},"B":{"x_min":100.609375,"x_max":853.296875,"ha":926,"o":"m 232 881 l 472 881 b 675 736 619 881 675 829 b 470 575 675 613 597 575 l 232 575 l 232 881 m 100 0 l 521 0 b 853 294 737 0 853 134 b 676 537 853 465 740 511 b 807 745 783 588 807 680 b 530 997 807 881 713 997 l 100 997 l 100 0 m 232 465 l 492 465 b 721 297 600 465 721 437 b 514 115 721 186 651 115 l 232 115 l 232 465 "},"…":{"x_min":156.53125,"x_max":1204.578125,"ha":1389,"o":"m 298 147 l 156 147 l 156 0 l 298 0 l 298 147 m 751 147 l 609 147 l 609 0 l 751 0 l 751 147 m 1204 147 l 1063 147 l 1063 0 l 1204 0 l 1204 147 "},"В":{"x_min":100.25,"x_max":852.9375,"ha":926,"o":"m 100 1 l 512 1 b 852 295 764 1 852 163 b 676 538 852 447 754 511 b 806 747 774 580 806 679 b 632 981 806 877 727 955 b 450 998 582 995 526 998 l 100 998 l 100 1 m 230 118 l 230 465 l 493 465 b 722 291 663 465 722 395 b 493 118 722 187 663 118 l 230 118 m 230 573 l 230 881 l 474 881 b 676 733 624 881 676 826 b 474 573 676 644 646 573 l 230 573 "},"І":{"x_min":123.859375,"x_max":254.53125,"ha":386,"o":"m 123 0 l 254 0 l 254 997 l 123 997 l 123 0 "},"H":{"x_min":104.8125,"x_max":879.28125,"ha":1003,"o":"m 747 584 l 236 584 l 236 997 l 104 997 l 104 0 l 236 0 l 236 465 l 747 465 l 747 0 l 879 0 l 879 997 l 747 997 l 747 584 "},"î":{"x_min":-8.171875,"x_max":387.921875,"ha":386,"o":"m 249 726 l 129 726 l 129 0 l 249 0 l 249 726 m 189 953 l 279 824 l 387 824 l 253 1019 l 126 1019 l -8 824 l 99 824 l 189 953 "},"":{"x_min":-20,"x_max":399,"ha":386,"o":"m -20 1254 b 189 1062 -9 1151 53 1062 b 399 1254 325 1062 388 1151 l 332 1254 b 189 1145 314 1172 260 1145 b 46 1254 118 1145 64 1172 l -20 1254 "},"−":{"x_min":53.078125,"x_max":741.8125,"ha":811,"o":"m 741 300 l 741 401 l 53 401 l 53 300 l 741 300 "},"≠":{"x_min":64.046875,"x_max":752.953125,"ha":833,"o":"m 64 147 l 239 147 l 166 0 l 296 0 l 370 147 l 752 147 l 752 263 l 428 263 l 517 438 l 752 438 l 752 555 l 575 555 l 650 702 l 520 702 l 445 555 l 64 555 l 64 438 l 386 438 l 298 263 l 64 263 l 64 147 "},"¥":{"x_min":4.078125,"x_max":752.703125,"ha":772,"o":"m 57 454 l 318 454 l 318 336 l 57 336 l 57 256 l 318 256 l 318 0 l 438 0 l 438 256 l 700 256 l 700 336 l 438 336 l 438 454 l 700 454 l 700 533 l 490 533 l 752 955 l 616 955 l 378 545 l 140 955 l 4 955 l 266 533 l 57 533 l 57 454 "},"U":{"x_min":107.53125,"x_max":876.5625,"ha":1003,"o":"m 744 997 l 744 366 b 487 93 744 150 608 93 b 239 369 368 93 239 152 l 239 997 l 107 997 l 107 331 b 483 -26 107 145 220 -26 b 876 350 751 -26 876 145 l 876 997 l 744 997 "},"Ñ":{"x_min":103.4375,"x_max":879.28125,"ha":1003,"o":"m 751 191 l 748 191 l 259 997 l 103 997 l 103 0 l 231 0 l 231 805 l 234 805 l 730 0 l 879 0 l 879 997 l 751 997 l 751 191 m 669 1273 b 601 1209 664 1247 656 1209 b 537 1227 590 1209 563 1216 l 507 1240 b 415 1261 479 1251 450 1261 b 273 1112 323 1261 284 1194 l 338 1112 b 402 1173 349 1148 366 1173 b 485 1152 419 1173 438 1169 l 521 1140 b 601 1122 558 1127 577 1122 b 737 1273 679 1122 728 1190 l 669 1273 "},"F":{"x_min":117.0625,"x_max":793.53125,"ha":849,"o":"m 249 452 l 728 452 l 728 572 l 249 572 l 249 877 l 793 877 l 793 997 l 117 997 l 117 0 l 249 0 l 249 452 "},"*":{"x_min":53.078125,"x_max":475.03125,"ha":540,"o":"m 53 820 l 200 773 l 108 645 l 175 598 l 264 729 l 352 598 l 419 645 l 328 773 l 475 820 l 447 897 l 304 844 l 304 997 l 223 997 l 223 844 l 80 897 l 53 820 "},"†":{"x_min":58.53125,"x_max":699.609375,"ha":772,"o":"m 443 598 l 699 598 l 699 704 l 443 704 l 443 997 l 315 997 l 315 704 l 58 704 l 58 598 l 315 598 l 315 -220 l 443 -220 l 443 598 "},"Ќ":{"x_min":100.71875,"x_max":901.0625,"ha":926,"o":"m 360 1062 l 451 1062 l 630 1262 l 481 1262 l 360 1062 m 100 0 l 231 0 l 231 347 l 389 502 l 733 0 l 901 0 l 483 594 l 890 997 l 707 997 l 231 511 l 231 997 l 100 997 l 100 0 "},"∕":{"x_min":-226,"x_max":453,"ha":232,"o":"m 453 976 l 375 976 l -226 -26 l -148 -26 l 453 976 "},"°":{"x_min":73.5,"x_max":470.9375,"ha":556,"o":"m 272 916 b 405 773 344 916 405 847 b 272 630 405 700 344 630 b 138 773 200 630 138 700 b 272 916 138 847 200 916 m 470 773 b 272 976 470 888 385 976 b 73 773 159 976 73 888 b 272 570 73 658 159 570 b 470 773 385 570 470 658 "},"å":{"x_min":49,"x_max":721.390625,"ha":772,"o":"m 194 506 b 357 647 202 562 221 647 b 525 529 470 647 525 605 b 462 443 525 456 491 445 l 265 418 b 49 190 66 393 49 251 b 272 -19 49 65 141 -19 b 529 98 411 -19 483 47 b 656 -12 533 43 549 -12 b 721 1 683 -12 700 -4 l 721 90 b 681 84 707 87 692 84 b 642 127 657 84 642 97 l 642 545 b 378 748 642 731 435 748 b 84 506 202 748 89 680 l 194 506 m 522 252 b 302 81 522 155 413 81 b 172 208 212 81 172 129 b 325 326 172 300 266 318 b 522 372 473 345 503 356 l 522 252 m 379 1051 b 254 923 307 1051 254 997 b 379 795 254 850 307 795 b 504 923 451 795 504 850 b 379 1051 504 997 451 1051 m 308 923 b 379 995 308 963 340 995 b 450 923 419 995 450 963 b 379 851 450 883 419 851 b 308 923 340 851 308 883 "},"0":{"x_min":50.359375,"x_max":706.421875,"ha":772,"o":"m 578 475 b 378 83 578 230 515 83 b 178 475 240 83 178 230 b 378 866 178 719 240 866 b 578 475 515 866 578 719 m 706 475 b 378 976 706 677 653 976 b 50 475 103 976 50 677 b 378 -26 50 272 103 -26 b 706 475 653 -26 706 272 "},"”":{"x_min":35.390625,"x_max":401.53125,"ha":463,"o":"m 35 850 l 107 850 b 35 708 107 802 106 719 l 35 643 b 176 861 145 669 176 754 l 176 997 l 35 997 l 35 850 m 259 850 l 332 850 b 259 708 332 802 330 719 l 259 643 b 401 861 370 669 401 754 l 401 997 l 259 997 l 259 850 "},"ö":{"x_min":47.640625,"x_max":709.140625,"ha":772,"o":"m 47 363 b 378 -19 47 176 151 -19 b 709 363 605 -19 709 176 b 378 747 709 551 605 747 b 47 363 151 747 47 551 m 171 363 b 378 641 171 461 206 641 b 585 363 549 641 585 461 b 378 86 585 266 549 86 b 171 363 206 86 171 266 m 330 980 l 206 980 l 206 838 l 330 838 l 330 980 m 551 980 l 427 980 l 427 838 l 551 838 l 551 980 "},"Õ":{"x_min":53.078125,"x_max":1005.859375,"ha":1081,"o":"m 869 498 b 529 93 869 263 741 93 b 189 498 317 93 189 263 b 529 904 189 733 317 904 b 869 498 741 904 869 733 m 1005 498 b 529 1023 1005 713 894 1023 b 53 498 164 1023 53 713 b 529 -26 53 283 164 -26 b 1005 498 894 -26 1005 283 m 694 1273 b 626 1209 688 1247 680 1209 b 562 1227 615 1209 588 1216 l 532 1240 b 439 1261 503 1251 475 1261 b 298 1112 348 1261 308 1194 l 363 1112 b 427 1173 374 1148 390 1173 b 510 1152 443 1173 462 1169 l 545 1140 b 626 1122 582 1127 601 1122 b 762 1273 703 1122 752 1190 l 694 1273 "},"№":{"x_min":16.328125,"x_max":1355.671875,"ha":1389,"o":"m 955 526 b 1094 708 955 630 1007 708 b 1233 526 1181 708 1233 630 b 1094 344 1233 422 1181 344 b 955 526 1007 344 955 422 m 833 526 b 1094 244 833 337 952 244 b 1355 526 1235 244 1355 337 b 1094 808 1355 715 1235 808 b 833 526 952 808 833 715 m 861 41 l 1327 41 l 1327 150 l 861 150 l 861 41 m 16 0 l 138 0 l 138 800 l 141 800 l 601 0 l 743 0 l 743 997 l 620 997 l 620 197 l 617 197 l 157 997 l 16 997 l 16 0 "},"þ":{"x_min":78.9375,"x_max":703.703125,"ha":772,"o":"m 193 329 b 385 637 193 447 212 637 b 579 365 570 637 579 458 b 387 84 579 205 518 84 b 193 329 311 84 193 136 m 78 -287 l 198 -287 l 198 76 l 201 76 b 390 -20 232 25 295 -20 b 703 384 632 -20 703 211 b 406 747 703 588 596 747 b 201 626 277 747 225 665 l 198 626 l 198 997 l 78 997 l 78 -287 "},"]":{"x_min":38.109375,"x_max":292.640625,"ha":386,"o":"m 185 -173 l 38 -173 l 38 -272 l 292 -272 l 292 1002 l 38 1002 l 38 904 l 185 904 l 185 -173 "},"А":{"x_min":18,"x_max":889,"ha":926,"o":"m 748 0 l 889 0 l 535 997 l 385 997 l 18 0 l 158 0 l 262 301 l 644 301 l 748 0 m 607 409 l 299 409 l 452 847 l 454 847 l 607 409 "},"Ы":{"x_min":123.859375,"x_max":1118.828125,"ha":1235,"o":"m 123 0 l 547 0 b 856 293 743 0 856 116 b 514 586 856 473 748 586 l 254 586 l 254 997 l 123 997 l 123 0 m 254 116 l 254 469 l 500 469 b 717 293 635 469 717 425 b 529 116 717 159 635 116 l 254 116 m 988 0 l 1118 0 l 1118 997 l 988 997 l 988 0 "},"8":{"x_min":51.921875,"x_max":703.890625,"ha":772,"o":"m 669 725 b 374 976 669 838 586 976 b 84 708 145 976 84 809 b 213 518 84 616 132 550 b 51 280 113 476 51 400 b 149 48 51 233 51 127 b 379 -26 226 -12 326 -26 b 703 281 605 -26 703 125 b 547 519 703 355 676 463 b 669 725 589 541 669 584 m 377 458 b 575 268 486 458 575 400 b 384 83 575 115 471 83 b 179 277 217 83 179 200 b 377 458 179 368 242 458 m 375 563 b 208 713 288 563 208 620 b 367 866 208 776 239 866 b 546 720 507 866 546 780 b 375 563 546 631 479 563 "},"R":{"x_min":121,"x_max":932.21875,"ha":1003,"o":"m 253 427 l 572 427 b 747 250 730 427 747 331 b 770 0 747 212 751 61 l 932 0 l 932 22 b 883 122 891 45 884 66 l 875 302 b 758 490 869 441 813 466 b 894 729 820 527 894 581 b 572 997 894 940 733 997 l 121 997 l 121 0 l 253 0 l 253 427 m 253 881 l 582 881 b 758 715 647 881 758 869 b 559 543 758 568 655 543 l 253 543 l 253 881 "},"o":{"x_min":47.640625,"x_max":709.140625,"ha":772,"o":"m 47 363 b 378 -19 47 176 151 -19 b 709 363 605 -19 709 176 b 378 747 709 551 605 747 b 47 363 151 747 47 551 m 171 363 b 378 641 171 461 206 641 b 585 363 549 641 585 461 b 378 86 585 266 549 86 b 171 363 206 86 171 266 "},"5":{"x_min":43.5625,"x_max":699.609375,"ha":772,"o":"m 240 836 l 646 836 l 646 955 l 151 955 l 78 431 l 182 426 b 359 519 227 486 289 519 b 571 302 477 519 571 443 b 370 79 571 180 494 79 b 167 243 262 79 179 129 l 43 243 b 352 -26 66 25 227 -26 b 699 316 651 -26 699 208 b 385 629 699 518 540 629 b 200 568 299 629 240 600 l 240 836 "},"Ѕ":{"x_min":65.328125,"x_max":841.171875,"ha":926,"o":"m 812 704 b 443 1022 812 913 661 1022 b 98 725 212 1022 98 887 b 347 472 98 594 172 516 l 521 427 b 710 258 660 394 710 351 b 449 91 710 140 589 91 b 187 323 307 91 187 172 l 65 323 l 65 306 b 446 -25 65 127 187 -25 b 841 279 638 -25 841 41 b 581 545 841 419 759 501 l 386 594 b 220 731 280 620 220 659 b 450 905 220 841 294 905 b 690 704 611 905 683 815 l 812 704 "},"õ":{"x_min":48.109375,"x_max":709.609375,"ha":772,"o":"m 48 363 b 378 -19 48 176 151 -19 b 709 363 606 -19 709 176 b 378 747 709 551 606 747 b 48 363 151 747 48 551 m 171 363 b 378 641 171 461 207 641 b 585 363 550 641 585 461 b 378 86 585 266 550 86 b 171 363 207 86 171 266 m 543 1002 b 475 938 538 976 529 938 b 411 956 464 938 437 945 l 381 969 b 289 990 353 980 324 990 b 147 841 197 990 158 923 l 212 841 b 276 902 223 877 240 902 b 359 881 293 902 312 898 l 395 869 b 475 851 431 856 451 851 b 611 1002 553 851 602 919 l 543 1002 "},",":{"x_min":118.421875,"x_max":259.96875,"ha":386,"o":"m 118 0 l 190 0 b 118 -140 190 -65 175 -134 l 118 -204 b 259 11 145 -200 259 -177 l 259 147 l 118 147 l 118 0 "},"d":{"x_min":47.640625,"x_max":679.203125,"ha":772,"o":"m 679 997 l 559 997 l 559 633 l 556 623 b 344 747 528 665 473 747 b 47 384 155 747 47 588 b 360 -20 47 211 118 -20 b 563 100 430 -20 511 1 l 566 100 l 566 0 l 679 0 l 679 997 m 171 365 b 366 637 171 458 181 637 b 558 329 539 637 558 447 b 363 84 558 136 439 84 b 171 365 232 84 171 205 "},"ѣ":{"x_min":17.6875,"x_max":808.5,"ha":849,"o":"m 240 0 l 560 0 b 808 226 715 0 808 86 b 560 452 808 365 715 452 l 363 452 l 363 618 l 586 618 l 586 726 l 363 726 l 363 997 l 240 997 l 240 726 l 17 726 l 17 618 l 240 618 l 240 0 m 545 352 b 686 226 622 352 686 316 b 545 100 686 134 622 100 l 363 100 l 363 352 l 545 352 "},"\"":{"x_min":95.28125,"x_max":387.921875,"ha":493,"o":"m 95 643 l 194 643 l 194 997 l 95 997 l 95 643 m 288 643 l 387 643 l 387 997 l 288 997 l 288 643 "},"˙":{"x_min":164.6875,"x_max":288.5625,"ha":463,"o":"m 288 980 l 164 980 l 164 838 l 288 838 l 288 980 "},"ê":{"x_min":54.0625,"x_max":701.953125,"ha":772,"o":"m 572 228 b 388 85 568 174 501 85 b 182 324 251 85 182 172 l 701 324 b 395 747 701 581 601 747 b 54 343 160 747 54 568 b 372 -20 54 133 172 -20 b 565 29 486 -20 533 7 b 692 228 655 90 688 193 l 572 228 m 182 421 b 379 638 182 533 269 638 b 578 421 525 638 571 533 l 182 421 m 378 953 l 467 824 l 576 824 l 441 1019 l 315 1019 l 180 824 l 288 824 l 378 953 "},"„":{"x_min":35.390625,"x_max":401.53125,"ha":463,"o":"m 35 0 l 107 0 b 35 -141 107 -47 106 -130 l 35 -206 b 176 11 145 -180 176 -95 l 176 147 l 35 147 l 35 0 m 259 0 l 332 0 b 259 -141 332 -47 330 -130 l 259 -206 b 401 11 370 -180 401 -95 l 401 147 l 259 147 l 259 0 "},"ч":{"x_min":61.25,"x_max":641.078125,"ha":747,"o":"m 518 0 l 641 0 l 641 726 l 518 726 l 518 395 b 370 376 480 381 408 376 b 183 525 230 376 183 416 l 183 726 l 61 726 l 61 500 b 341 276 61 338 151 276 b 518 293 383 276 453 281 l 518 0 "},"Â":{"x_min":19,"x_max":890,"ha":926,"o":"m 649 289 l 745 0 l 890 0 l 536 996 l 386 996 l 19 0 l 155 0 l 257 289 l 649 289 m 298 409 l 454 848 l 457 848 l 601 409 l 298 409 m 453 1223 l 542 1094 l 651 1094 l 517 1289 l 390 1289 l 255 1094 l 363 1094 l 453 1223 "},"Í":{"x_min":124,"x_max":397.578125,"ha":386,"o":"m 256 997 l 124 997 l 124 0 l 256 0 l 256 997 m 397 1290 l 250 1290 l 129 1094 l 220 1094 l 397 1290 "},"´":{"x_min":166,"x_max":434,"ha":463,"o":"m 434 1019 l 287 1019 l 166 823 l 257 823 l 434 1019 "},"Ú":{"x_min":107.53125,"x_max":876.5625,"ha":1003,"o":"m 744 997 l 744 366 b 487 93 744 150 608 93 b 239 369 368 93 239 152 l 239 997 l 107 997 l 107 331 b 483 -26 107 145 220 -26 b 876 350 751 -26 876 145 l 876 997 l 744 997 m 699 1290 l 552 1290 l 431 1094 l 522 1094 l 699 1290 "},"Ý":{"x_min":19.125,"x_max":888.875,"ha":926,"o":"m 520 401 l 888 997 l 733 997 l 453 518 l 172 997 l 19 997 l 388 401 l 388 0 l 520 0 l 520 401 m 661 1290 l 514 1290 l 393 1094 l 484 1094 l 661 1290 "},"И":{"x_min":100.71875,"x_max":882,"ha":1003,"o":"m 100 0 l 251 0 l 748 811 l 751 811 l 751 0 l 882 0 l 882 997 l 730 997 l 234 190 l 231 190 l 231 997 l 100 997 l 100 0 "},"ѵ":{"x_min":2.71875,"x_max":710.5,"ha":694,"o":"m 249 0 l 375 0 l 567 554 b 656 648 586 611 611 648 b 710 633 676 648 692 644 l 710 733 b 628 748 690 743 664 748 b 472 608 555 748 503 708 l 319 125 l 317 125 l 129 726 l 2 726 l 249 0 "},"Љ":{"x_min":28.578125,"x_max":1308.03125,"ha":1389,"o":"m 651 880 l 651 0 l 999 0 b 1308 293 1195 0 1308 116 b 966 586 1308 473 1200 586 l 782 586 l 782 997 l 223 997 l 202 353 b 96 91 196 126 167 91 b 28 108 85 91 55 91 l 28 -8 b 118 -24 57 -20 88 -24 b 333 348 319 -24 328 173 l 353 880 l 651 880 m 782 469 l 952 469 b 1169 293 1087 469 1169 425 b 981 116 1169 160 1087 116 l 782 116 l 782 469 "},"р":{"x_min":83.03125,"x_max":709.140625,"ha":772,"o":"m 83 -286 l 205 -286 l 205 81 l 208 81 b 396 -22 231 34 302 -22 b 709 390 585 -22 709 91 b 417 748 709 629 570 748 b 208 626 303 748 240 694 l 205 626 l 205 726 l 83 726 l 83 -286 m 202 359 b 392 640 202 523 262 640 b 586 359 526 640 586 523 b 392 86 586 202 526 86 b 202 359 262 86 202 202 "},"Ω":{"x_min":63.96875,"x_max":910.578125,"ha":997,"o":"m 264 95 l 63 95 l 63 0 l 396 0 l 396 70 b 198 502 295 134 198 295 b 491 884 198 715 313 884 b 775 506 679 884 775 686 b 578 70 775 284 679 137 l 578 0 l 910 0 l 910 95 l 707 95 l 707 98 b 891 529 800 177 891 330 b 491 981 891 762 739 981 b 83 522 257 981 83 788 b 264 98 83 330 170 184 l 264 95 "},"т":{"x_min":34.03125,"x_max":646.53125,"ha":694,"o":"m 279 0 l 401 0 l 401 618 l 646 618 l 646 726 l 34 726 l 34 618 l 279 618 l 279 0 "},"П":{"x_min":100.71875,"x_max":882,"ha":1003,"o":"m 100 0 l 231 0 l 231 880 l 751 880 l 751 0 l 882 0 l 882 997 l 100 997 l 100 0 "},"Ö":{"x_min":53.078125,"x_max":1005.859375,"ha":1081,"o":"m 869 498 b 529 93 869 263 741 93 b 189 498 317 93 189 263 b 529 904 189 733 317 904 b 869 498 741 904 869 733 m 1005 498 b 529 1023 1005 713 894 1023 b 53 498 164 1023 53 713 b 529 -26 53 283 164 -26 b 1005 498 894 -26 1005 283 m 481 1251 l 357 1251 l 357 1109 l 481 1109 l 481 1251 m 702 1251 l 578 1251 l 578 1109 l 702 1109 l 702 1251 "},"z":{"x_min":41.875,"x_max":638.046875,"ha":694,"o":"m 625 626 l 625 726 l 74 726 l 74 625 l 470 625 l 41 95 l 41 0 l 638 0 l 638 101 l 201 101 l 625 626 "},"":{"x_min":48.078125,"x_max":709.578125,"ha":772,"o":"m 553 1005 b 415 963 542 969 535 968 l 327 961 b 88 785 261 959 88 954 b 191 651 88 677 166 658 b 48 358 147 622 48 555 b 376 -22 48 261 79 -22 b 709 368 646 -22 709 205 b 610 647 709 461 689 570 b 340 725 529 722 444 723 b 191 789 256 725 191 726 b 331 859 191 854 263 857 l 436 863 b 645 1005 547 867 626 870 l 553 1005 m 587 370 b 378 77 587 229 548 77 b 169 352 211 77 169 229 b 378 626 169 431 188 626 b 587 370 570 626 587 422 "},"™":{"x_min":62.609375,"x_max":1229.078125,"ha":1389,"o":"m 758 997 l 605 997 l 605 425 l 705 425 l 705 890 l 707 890 l 883 425 l 951 425 l 1127 890 l 1129 890 l 1129 425 l 1229 425 l 1229 997 l 1076 997 l 918 576 l 758 997 m 507 997 l 62 997 l 62 913 l 235 913 l 235 425 l 334 425 l 334 913 l 507 913 l 507 997 "},"ã":{"x_min":49.09375,"x_max":721.484375,"ha":772,"o":"m 194 505 b 358 645 202 561 221 645 b 525 527 471 645 525 604 b 462 441 525 455 491 444 l 265 416 b 49 188 66 391 49 250 b 272 -20 49 63 141 -20 b 529 97 411 -20 483 45 b 656 -13 533 41 549 -13 b 721 0 683 -13 701 -5 l 721 88 b 682 83 707 86 692 83 b 642 126 657 83 642 95 l 642 544 b 378 747 642 730 435 747 b 84 505 202 747 89 679 l 194 505 m 522 251 b 302 80 522 154 413 80 b 172 206 212 80 172 127 b 325 325 172 298 266 316 b 522 370 473 344 503 355 l 522 251 m 529 1002 b 461 938 524 976 515 938 b 397 956 450 938 423 945 l 367 969 b 275 990 339 980 310 990 b 133 841 183 990 144 923 l 198 841 b 262 902 209 877 226 902 b 345 881 279 902 298 898 l 381 869 b 461 851 417 856 437 851 b 597 1002 539 851 588 919 l 529 1002 "},"æ":{"x_min":49,"x_max":1152.859375,"ha":1235,"o":"m 632 421 b 830 638 632 533 720 638 b 1029 421 975 638 1022 533 l 632 421 m 1023 228 b 839 85 1019 174 952 85 b 632 324 702 85 632 172 l 1152 324 b 846 747 1152 581 1052 747 b 609 644 703 747 649 683 b 378 747 559 699 514 747 b 84 506 202 747 89 679 l 194 506 b 357 646 202 561 221 646 b 525 528 470 646 525 604 b 462 442 525 456 491 444 l 265 417 b 49 189 66 392 49 250 b 272 -20 49 64 141 -20 b 562 131 400 -20 492 24 b 823 -20 589 81 653 -20 b 1016 29 937 -20 984 7 b 1143 228 1106 90 1139 193 l 1023 228 m 522 251 b 302 81 522 154 413 81 b 172 207 212 81 172 128 b 325 325 172 299 266 317 b 522 371 473 344 503 356 l 522 251 "},"É":{"x_min":117.0625,"x_max":838.453125,"ha":926,"o":"m 838 119 l 249 119 l 249 452 l 784 452 l 784 572 l 249 572 l 249 877 l 828 877 l 828 997 l 117 997 l 117 0 l 838 0 l 838 119 m 661 1290 l 514 1290 l 393 1094 l 484 1094 l 661 1290 "},"и":{"x_min":84.390625,"x_max":672.390625,"ha":772,"o":"m 84 0 l 224 0 l 547 543 l 549 543 l 549 0 l 672 0 l 672 726 l 532 726 l 209 183 l 206 183 l 206 726 l 84 726 l 84 0 "},"~":{"x_min":83,"x_max":711.828125,"ha":811,"o":"m 662 452 b 543 352 631 404 597 352 b 404 402 519 352 472 370 b 253 447 352 426 299 447 b 83 327 161 447 112 386 l 132 250 b 246 350 153 298 186 350 b 402 301 308 350 359 326 b 541 255 447 276 491 255 b 711 375 615 255 671 308 l 662 452 "},"":{"x_min":-93.921875,"x_max":396.078125,"ha":308,"o":"m -93 822 l 20 822 l 20 963 l -93 963 l -93 822 m 281 822 l 396 822 l 396 963 l 281 963 l 281 822 m 72 822 l 163 822 l 273 1022 l 125 1022 l 72 822 "},"³":{"x_min":6.8125,"x_max":442.359375,"ha":463,"o":"m 6 569 b 100 401 12 502 31 434 b 215 375 130 386 168 375 b 442 563 377 375 442 468 b 338 698 442 641 400 681 l 338 701 b 419 822 372 711 419 747 b 227 976 419 911 347 976 b 21 784 63 976 21 870 l 104 784 b 215 895 107 833 123 895 b 323 818 308 895 323 847 b 212 725 323 744 272 725 l 175 725 l 175 654 l 206 654 b 347 554 259 654 347 652 b 216 455 347 486 295 455 b 99 569 114 455 102 520 l 6 569 "},"¡":{"x_min":160.609375,"x_max":292.640625,"ha":463,"o":"m 160 584 l 292 584 l 292 726 l 160 726 l 160 584 m 193 488 l 160 58 l 160 -270 l 292 -270 l 292 58 l 259 488 l 193 488 "},"[":{"x_min":85.75,"x_max":340.28125,"ha":386,"o":"m 193 904 l 340 904 l 340 1002 l 85 1002 l 85 -272 l 340 -272 l 340 -173 l 193 -173 l 193 904 "},"К":{"x_min":100.71875,"x_max":901.0625,"ha":926,"o":"m 100 0 l 231 0 l 231 347 l 389 502 l 733 0 l 901 0 l 483 594 l 890 997 l 707 997 l 231 511 l 231 997 l 100 997 l 100 0 "},"ѳ":{"x_min":47.78125,"x_max":709.21875,"ha":772,"o":"m 584 309 b 378 86 569 176 499 86 b 173 309 257 86 187 176 l 584 309 m 173 409 b 378 640 185 547 256 640 b 584 409 500 640 571 547 l 173 409 m 709 363 b 378 748 709 600 585 748 b 47 363 171 748 47 600 b 378 -22 47 126 171 -22 b 709 363 585 -22 709 126 "},"%":{"x_min":53.078125,"x_max":1156.953125,"ha":1235,"o":"m 53 730 b 285 493 53 597 157 493 b 517 730 413 493 517 600 b 285 965 517 861 412 965 b 53 730 157 965 53 862 m 148 730 b 285 868 148 805 208 868 b 421 730 360 868 421 808 b 284 590 421 654 363 590 b 148 730 212 590 148 644 m 692 227 b 925 -9 692 94 797 -9 b 1156 227 1053 -9 1156 97 b 925 462 1156 358 1052 462 b 692 227 797 462 692 359 m 788 227 b 925 365 788 302 847 365 b 1061 227 1000 365 1061 305 b 924 87 1061 151 1003 87 b 788 227 852 87 788 141 m 910 976 l 835 976 l 298 -26 l 371 -26 l 910 976 "},"P":{"x_min":117.0625,"x_max":846.609375,"ha":926,"o":"m 249 881 l 517 881 b 710 715 626 881 710 841 b 511 536 710 580 630 536 l 249 536 l 249 881 m 249 420 l 556 420 b 846 716 769 420 846 577 b 556 997 846 877 737 997 l 117 997 l 117 0 l 249 0 l 249 420 "},"∏":{"x_min":35.390625,"x_max":918.75,"ha":975,"o":"m 918 861 l 918 965 l 35 965 l 35 861 l 182 861 l 182 -133 l 294 -133 l 294 861 l 660 861 l 660 -133 l 771 -133 l 771 861 l 918 861 "},"_":{"x_min":0,"x_max":756.78125,"ha":772,"o":"m 756 -173 l 756 -104 l 0 -104 l 0 -173 l 756 -173 "},"ñ":{"x_min":88.078125,"x_max":667.921875,"ha":772,"o":"m 667 494 b 418 747 667 701 529 747 b 203 623 296 747 229 662 l 201 623 l 201 726 l 88 726 l 88 0 l 207 0 l 207 395 b 395 637 207 593 327 637 b 548 447 512 637 548 573 l 548 0 l 667 0 l 667 494 m 529 1002 b 461 938 523 976 515 938 b 397 956 450 938 422 945 l 367 969 b 274 990 338 980 309 990 b 133 841 183 990 143 923 l 198 841 b 262 902 209 877 225 902 b 345 881 278 902 297 898 l 380 869 b 461 851 417 856 436 851 b 597 1002 538 851 587 919 l 529 1002 "},"‚":{"x_min":72.140625,"x_max":213.6875,"ha":308,"o":"m 72 0 l 144 0 b 72 -141 144 -47 142 -130 l 72 -206 b 213 11 182 -180 213 -95 l 213 147 l 72 147 l 72 0 "},"Æ":{"x_min":10.890625,"x_max":1294.421875,"ha":1389,"o":"m 261 290 l 622 290 l 622 0 l 1294 0 l 1294 119 l 754 119 l 754 452 l 1238 452 l 1238 572 l 754 572 l 754 877 l 1284 877 l 1284 997 l 408 997 l 10 0 l 153 0 l 261 290 m 622 409 l 308 409 l 490 877 l 622 877 l 622 409 "},"ѓ":{"x_min":90.328125,"x_max":505.46875,"ha":539,"o":"m 90 0 l 212 0 l 212 618 l 505 618 l 505 726 l 90 726 l 90 0 m 172 822 l 263 822 l 441 1022 l 293 1022 l 172 822 "},"ы":{"x_min":89.828125,"x_max":892.890625,"ha":1003,"o":"m 770 0 l 892 0 l 892 726 l 770 726 l 770 0 m 89 0 l 426 0 b 673 226 581 0 673 86 b 426 452 673 365 581 452 l 212 452 l 212 726 l 89 726 l 89 0 m 212 352 l 390 352 b 551 226 487 352 551 316 b 401 100 551 134 487 100 l 212 100 l 212 352 "},"ª":{"x_min":32.671875,"x_max":470.9375,"ha":514,"o":"m 470 631 b 445 629 461 630 451 629 b 420 655 428 629 420 636 l 420 902 b 247 1024 420 1015 284 1024 b 55 879 133 1024 59 983 l 129 879 b 234 952 132 901 140 952 b 337 898 307 952 337 927 b 304 845 337 855 321 848 l 185 831 b 32 690 44 815 32 731 b 178 563 32 615 93 563 b 345 634 268 563 315 604 b 427 563 348 595 359 563 b 470 570 445 563 457 567 l 470 631 m 197 636 b 118 705 138 636 118 663 b 212 765 118 749 174 761 b 337 792 308 777 329 784 l 337 738 b 197 636 341 680 270 636 m 47 490 l 47 423 l 450 423 l 450 490 l 47 490 "},"ї":{"x_min":-19.0625,"x_max":321.21875,"ha":308,"o":"m 89 0 l 212 0 l 212 726 l 89 726 l 89 0 m -19 847 l 103 847 l 103 988 l -19 988 l -19 847 m 198 847 l 321 847 l 321 988 l 198 988 l 198 847 "},"Œ":{"x_min":49,"x_max":1313.46875,"ha":1389,"o":"m 703 319 b 485 88 703 151 574 88 b 219 262 333 88 265 147 b 185 470 196 322 185 390 b 468 908 185 605 205 908 b 703 683 605 908 703 822 l 703 319 m 711 895 l 709 895 b 466 1023 688 930 628 1023 b 49 493 125 1023 49 687 b 447 -26 49 194 190 -26 b 707 104 611 -26 662 44 l 710 104 l 710 0 l 1313 0 l 1313 119 l 835 119 l 835 452 l 1288 452 l 1288 572 l 835 572 l 835 877 l 1310 877 l 1310 997 l 711 997 l 711 895 "},"T":{"x_min":19.0625,"x_max":812.578125,"ha":849,"o":"m 19 877 l 349 877 l 349 0 l 481 0 l 481 877 l 812 877 l 812 997 l 19 997 l 19 877 "},"Њ":{"x_min":100.71875,"x_max":1287.609375,"ha":1389,"o":"m 785 469 l 932 469 b 1148 293 1067 469 1148 425 b 960 116 1148 159 1067 116 l 785 116 l 785 469 m 100 0 l 231 0 l 231 469 l 654 469 l 654 0 l 978 0 b 1287 293 1174 0 1287 116 b 945 586 1287 473 1180 586 l 785 586 l 785 997 l 654 997 l 654 586 l 231 586 l 231 997 l 100 997 l 100 0 "},"š":{"x_min":44.0625,"x_max":631.828125,"ha":694,"o":"m 608 519 b 336 747 608 555 591 747 b 67 515 196 747 67 675 b 231 338 67 415 132 363 l 370 304 b 512 200 472 277 512 258 b 348 84 512 119 434 84 b 159 233 180 84 163 176 l 44 233 b 350 -20 48 145 68 -20 b 631 219 510 -20 631 69 b 431 411 631 318 580 373 l 312 441 b 182 538 219 465 182 479 b 324 641 182 629 287 641 b 493 519 475 641 491 565 l 608 519 m 250 1019 l 143 1019 l 278 823 l 404 823 l 539 1019 l 430 1019 l 340 890 l 250 1019 "},"є":{"x_min":47.640625,"x_max":662.859375,"ha":694,"o":"m 537 237 b 368 86 528 148 460 86 b 178 309 239 86 179 208 l 423 309 l 423 409 l 178 409 b 367 640 187 555 253 640 b 537 498 473 640 522 569 l 654 498 b 364 748 631 672 492 748 b 47 365 160 748 47 590 b 364 -22 47 136 160 -22 b 662 237 514 -22 627 59 l 537 237 "},"Þ":{"x_min":117.0625,"x_max":846.609375,"ha":926,"o":"m 249 716 l 517 716 b 710 550 626 716 710 676 b 511 370 710 415 630 370 l 249 370 l 249 716 m 117 0 l 249 0 l 249 255 l 556 255 b 846 551 769 255 846 412 b 556 831 846 712 737 831 l 249 831 l 249 997 l 117 997 l 117 0 "},"j":{"x_min":-21.78125,"x_max":210.96875,"ha":308,"o":"m 210 726 l 91 726 l 91 -93 b 2 -181 91 -175 73 -181 l -21 -181 l -21 -287 b 28 -291 -4 -290 12 -291 b 210 -106 205 -291 210 -169 l 210 726 m 210 997 l 91 997 l 91 858 l 210 858 l 210 997 "},"1":{"x_min":137.46875,"x_max":488.640625,"ha":772,"o":"m 488 976 l 394 976 b 137 790 356 816 292 801 l 137 693 l 360 693 l 360 0 l 488 0 l 488 976 "},"›":{"x_min":119.78125,"x_max":333.46875,"ha":463,"o":"m 119 150 l 333 320 l 333 448 l 119 619 l 119 497 l 262 384 l 119 272 l 119 150 "},"ћ":{"x_min":17.6875,"x_max":684.640625,"ha":772,"o":"m 562 0 l 684 0 l 684 355 b 466 569 684 505 600 569 b 272 498 372 569 307 524 l 272 696 l 583 696 l 583 805 l 272 805 l 272 996 l 149 996 l 149 805 l 17 805 l 17 696 l 149 696 l 149 0 l 272 0 l 272 388 b 446 464 338 442 398 464 b 537 423 475 464 511 453 b 562 341 558 399 562 371 l 562 0 "},"ℓ":{"x_min":38.109375,"x_max":635.640625,"ha":679,"o":"m 582 205 b 400 72 548 143 483 72 b 255 276 323 72 257 131 l 255 323 b 533 827 423 490 533 654 b 362 1055 533 952 479 1055 b 147 719 254 1055 147 970 l 147 345 b 38 250 114 313 77 284 l 72 184 b 148 248 98 205 123 229 l 148 230 b 377 -19 156 97 220 -19 b 635 156 483 -19 573 36 l 582 205 m 255 726 b 363 969 255 911 314 969 b 457 826 431 969 457 912 b 255 436 457 697 368 563 l 255 726 "},"<":{"x_min":64.953125,"x_max":729.171875,"ha":811,"o":"m 729 125 l 198 350 l 729 575 l 729 687 l 64 399 l 64 302 l 729 14 l 729 125 "},"Ц":{"x_min":100.71875,"x_max":962.3125,"ha":1003,"o":"m 100 0 l 839 0 l 839 -213 l 962 -213 l 962 116 l 882 116 l 882 997 l 751 997 l 751 116 l 231 116 l 231 997 l 100 997 l 100 0 "},"t":{"x_min":19.0625,"x_max":349.8125,"ha":386,"o":"m 349 625 l 349 726 l 235 726 l 235 929 l 115 929 l 115 726 l 19 726 l 19 625 l 115 625 l 115 145 b 259 -9 115 58 141 -9 b 349 0 272 -9 306 -4 l 349 95 l 307 95 b 235 152 283 95 235 95 l 235 625 l 349 625 "},"¬":{"x_min":53.078125,"x_max":741.8125,"ha":811,"o":"m 642 150 l 741 150 l 741 541 l 53 541 l 53 440 l 642 440 l 642 150 "},"ù":{"x_min":92.5625,"x_max":665.578125,"ha":772,"o":"m 665 0 l 665 726 l 545 726 l 545 326 b 349 84 545 220 500 84 b 212 244 272 84 212 125 l 212 726 l 92 726 l 92 204 b 323 -20 92 30 219 -20 b 549 108 438 -20 499 23 l 552 105 l 552 0 l 665 0 m 348 823 l 439 823 l 318 1019 l 171 1019 l 348 823 "},"Ф":{"x_min":43.5625,"x_max":1015.390625,"ha":1081,"o":"m 892 498 b 594 218 892 320 778 218 l 594 779 b 892 498 778 779 892 676 m 464 0 l 594 0 l 594 118 b 1015 498 822 118 1015 245 b 594 879 1015 751 822 879 l 594 997 l 464 997 l 464 879 b 43 498 236 879 43 751 b 464 118 43 245 236 118 l 464 0 m 166 498 b 464 779 166 676 280 779 l 464 218 b 166 498 280 218 166 320 "},"ï":{"x_min":17.6875,"x_max":362.0625,"ha":386,"o":"m 249 726 l 129 726 l 129 0 l 249 0 l 249 726 m 141 980 l 17 980 l 17 838 l 141 838 l 141 980 m 362 980 l 238 980 l 238 838 l 362 838 l 362 980 "},"Ò":{"x_min":53.078125,"x_max":1005.859375,"ha":1081,"o":"m 869 498 b 529 93 869 263 741 93 b 189 498 317 93 189 263 b 529 904 189 733 317 904 b 869 498 741 904 869 733 m 1005 498 b 529 1023 1005 713 894 1023 b 53 498 164 1023 53 713 b 529 -26 53 283 164 -26 b 1005 498 894 -26 1005 283 m 499 1094 l 590 1094 l 469 1290 l 322 1290 l 499 1094 "},"О":{"x_min":53.078125,"x_max":1005.859375,"ha":1081,"o":"m 1005 498 b 529 1022 1005 808 830 1022 b 53 498 228 1022 53 808 b 529 -25 53 240 204 -25 b 1005 498 854 -25 1005 240 m 875 498 b 529 91 875 255 762 91 b 183 498 296 91 183 255 b 529 905 183 736 310 905 b 875 498 748 905 875 736 "},"&":{"x_min":59.21875,"x_max":878.28125,"ha":926,"o":"m 567 195 b 354 84 516 123 442 84 b 179 250 300 84 179 125 b 346 470 179 356 241 402 l 567 195 m 389 609 b 292 783 352 647 292 718 b 406 891 292 816 305 891 b 511 781 446 891 511 870 b 389 609 511 697 440 645 m 704 215 b 783 469 754 309 777 401 l 670 469 b 630 313 657 395 652 375 l 451 530 b 627 791 524 580 627 651 b 408 997 627 891 562 997 b 176 775 258 997 176 890 b 279 554 176 688 208 643 b 59 240 98 450 59 376 b 346 -20 59 163 102 -20 b 631 113 489 -20 565 36 l 723 0 l 878 0 l 704 215 "},"˝":{"x_min":42,"x_max":557,"ha":463,"o":"m 311 1019 l 163 1019 l 42 823 l 133 823 l 311 1019 m 557 1019 l 408 1019 l 287 823 l 378 823 l 557 1019 "},"I":{"x_min":123.859375,"x_max":255.890625,"ha":386,"o":"m 255 997 l 123 997 l 123 0 l 255 0 l 255 997 "},"G":{"x_min":65.078125,"x_max":957.96875,"ha":1081,"o":"m 529 418 l 834 418 b 726 152 834 311 812 222 b 526 88 654 94 575 88 b 201 500 266 88 201 297 b 521 904 201 761 345 904 b 813 694 628 904 771 868 l 941 694 b 527 1023 913 918 710 1023 b 65 506 209 1023 65 750 b 218 86 65 401 69 230 b 518 -26 269 36 350 -26 b 840 129 651 -26 774 34 l 872 0 l 957 0 l 957 533 l 529 533 l 529 418 "},"`":{"x_min":18.859375,"x_max":287,"ha":463,"o":"m 195 823 l 287 823 l 165 1019 l 18 1019 l 195 823 "},"·":{"x_min":104.8125,"x_max":274.9375,"ha":386,"o":"m 190 437 b 104 350 145 437 104 401 b 189 263 104 304 142 263 b 274 350 238 263 274 305 b 190 437 274 400 232 437 "},"¿":{"x_min":123.859375,"x_max":717.3125,"ha":849,"o":"m 597 45 b 416 -173 597 -13 590 -173 b 251 -15 284 -173 251 -73 b 360 177 251 63 270 83 b 490 476 455 277 490 318 l 370 476 b 251 222 372 338 337 306 b 123 -6 159 131 123 84 b 412 -279 123 -184 259 -279 b 609 -215 484 -279 555 -258 b 717 45 709 -137 713 -48 l 597 45 m 360 587 l 492 587 l 492 729 l 360 729 l 360 587 "},"ý":{"x_min":15,"x_max":666,"ha":694,"o":"m 343 134 l 340 134 l 151 726 l 15 726 l 279 -19 b 152 -187 222 -169 215 -187 b 80 -175 119 -187 95 -180 l 80 -286 b 130 -297 99 -291 113 -297 b 409 13 284 -297 296 -280 b 666 726 501 251 582 488 l 533 726 l 343 134 m 548 1019 l 401 1019 l 280 823 l 371 823 l 548 1019 "},"Ђ":{"x_min":17.6875,"x_max":980,"ha":1057,"o":"m 763 997 l 17 997 l 17 879 l 294 879 l 294 0 l 424 0 l 424 431 b 628 479 488 455 549 479 b 850 212 769 479 850 379 b 729 -87 850 98 816 -15 b 518 -165 650 -152 564 -161 l 518 -283 b 816 -180 588 -279 703 -272 b 980 219 932 -84 980 68 b 876 511 980 306 962 429 b 646 595 812 572 724 595 b 424 543 545 595 457 556 l 424 879 l 763 879 l 763 997 "},"º":{"x_min":34.03125,"x_max":464.140625,"ha":507,"o":"m 464 793 b 249 1023 464 973 349 1023 b 34 793 148 1023 34 973 b 249 562 34 612 148 562 b 464 793 349 562 464 612 m 372 793 b 249 634 372 736 356 634 b 125 793 141 634 125 736 b 249 951 125 850 141 951 b 372 793 356 951 372 850 m 47 488 l 47 422 l 450 422 l 450 488 l 47 488 "},"∞":{"x_min":80.3125,"x_max":1029,"ha":1132,"o":"m 555 275 b 808 125 632 187 706 125 b 1029 363 941 125 1029 226 b 809 601 1029 530 911 601 b 555 441 694 601 617 518 b 300 600 499 509 424 600 b 80 363 187 600 80 519 b 304 126 80 219 175 126 b 555 275 416 126 484 200 m 630 359 b 805 476 720 459 769 476 b 910 361 856 476 910 441 b 808 250 910 273 845 250 b 630 359 754 250 700 280 m 479 359 b 303 251 449 325 377 251 b 198 361 243 251 198 290 b 299 475 198 434 249 475 b 412 422 326 475 360 466 b 479 359 446 395 466 373 "},"я":{"x_min":53.453125,"x_max":668.671875,"ha":775,"o":"m 668 726 l 352 726 b 165 690 298 726 220 726 b 73 515 121 661 73 602 b 188 343 73 427 113 370 b 94 200 121 316 103 297 l 86 106 b 53 0 77 30 65 15 l 188 0 b 205 95 201 34 204 87 l 211 173 b 388 287 219 287 275 287 l 546 287 l 546 0 l 668 0 l 668 726 m 546 387 l 359 387 b 195 504 309 387 195 387 b 242 600 195 543 212 581 b 359 616 272 616 295 616 l 546 616 l 546 387 "},"Ё":{"x_min":100.71875,"x_max":823.46875,"ha":926,"o":"m 100 0 l 823 0 l 823 116 l 231 116 l 231 455 l 769 455 l 769 572 l 231 572 l 231 880 l 813 880 l 813 997 l 100 997 l 100 0 m 283 1062 l 405 1062 l 405 1204 l 283 1204 l 283 1062 m 500 1062 l 623 1062 l 623 1204 l 500 1204 l 500 1062 "},";":{"x_min":118.421875,"x_max":259.96875,"ha":386,"o":"m 118 0 l 190 0 b 118 -140 190 -65 175 -134 l 118 -204 b 259 11 145 -200 259 -177 l 259 147 l 118 147 l 118 0 m 259 569 l 259 716 l 118 716 l 118 569 l 259 569 "},"Г":{"x_min":100.71875,"x_max":675.109375,"ha":721,"o":"m 100 0 l 231 0 l 231 880 l 675 880 l 675 997 l 100 997 l 100 0 "},"6":{"x_min":51.71875,"x_max":705.0625,"ha":772,"o":"m 684 716 b 405 976 672 915 515 976 b 51 454 119 976 51 668 b 125 115 51 326 68 206 b 371 -26 193 6 298 -26 b 613 68 506 -26 563 11 b 705 312 679 140 705 212 b 405 622 705 545 522 622 b 178 502 274 622 208 555 l 175 505 b 402 866 175 608 215 866 b 567 716 506 866 552 802 l 684 716 m 191 300 b 387 512 191 415 255 512 b 581 306 536 512 581 393 b 393 83 581 175 507 83 b 191 300 253 83 191 195 "},"Ь":{"x_min":121.140625,"x_max":853.421875,"ha":926,"o":"m 121 0 l 544 0 b 853 293 740 0 853 116 b 511 586 853 473 745 586 l 251 586 l 251 997 l 121 997 l 121 0 m 251 116 l 251 469 l 498 469 b 714 293 632 469 714 425 b 526 116 714 159 632 116 l 251 116 "},"n":{"x_min":88.46875,"x_max":668.3125,"ha":772,"o":"m 668 494 b 419 747 668 701 529 747 b 204 623 296 747 230 662 l 201 623 l 201 726 l 88 726 l 88 0 l 208 0 l 208 395 b 396 637 208 593 328 637 b 548 447 513 637 548 573 l 548 0 l 668 0 l 668 494 "},"¤":{"x_min":37.953125,"x_max":719.046875,"ha":772,"o":"m 653 837 l 576 759 b 378 830 524 805 450 830 b 180 759 306 830 232 805 l 103 837 l 37 770 l 112 695 b 44 487 66 641 44 563 b 112 277 44 411 66 336 l 39 200 l 100 137 l 175 218 b 378 141 229 166 304 141 b 581 218 452 141 527 166 l 656 137 l 717 200 l 644 277 b 712 487 690 336 712 411 b 644 695 712 563 690 641 l 719 770 l 653 837 m 144 487 b 378 732 144 617 249 732 b 612 487 507 732 612 617 b 378 239 612 354 509 239 b 144 487 247 239 144 354 "},"∂":{"x_min":32.671875,"x_max":677.828125,"ha":772,"o":"m 138 797 b 315 870 168 827 235 870 b 539 508 507 854 543 662 b 326 601 479 586 385 601 b 32 295 145 601 32 465 b 330 -22 32 155 115 -22 b 677 481 646 -22 677 319 b 613 790 677 540 671 684 b 307 974 555 895 453 974 b 69 883 196 974 127 927 l 138 797 m 348 492 b 537 404 438 492 511 433 b 337 86 541 241 484 86 b 163 287 242 86 163 138 b 348 492 163 383 204 492 "},"p":{"x_min":78.9375,"x_max":703.703125,"ha":772,"o":"m 193 329 b 385 637 193 447 212 637 b 579 365 570 637 579 458 b 387 84 579 205 518 84 b 193 329 311 84 193 136 m 78 -287 l 198 -287 l 198 76 l 201 76 b 390 -20 232 25 295 -20 b 703 384 632 -20 703 211 b 406 747 703 588 596 747 b 194 623 277 747 223 665 l 191 623 l 191 726 l 78 726 l 78 -287 "},"":{"x_min":59,"x_max":329,"ha":386,"o":"m 59 1062 l 150 1062 l 329 1262 l 180 1262 l 59 1062 "},"‡":{"x_min":58.53125,"x_max":699.609375,"ha":772,"o":"m 443 609 l 699 609 l 699 715 l 443 715 l 443 997 l 315 997 l 315 715 l 58 715 l 58 609 l 315 609 l 315 165 l 58 165 l 58 59 l 315 59 l 315 -220 l 443 -220 l 443 59 l 699 59 l 699 165 l 443 165 l 443 609 "},"√":{"x_min":48.53125,"x_max":627,"ha":714,"o":"m 93 104 l 146 136 l 305 -286 l 420 -286 l 627 975 l 504 975 l 341 -50 l 205 316 l 48 225 l 93 104 "},"Ю":{"x_min":100.71875,"x_max":1308.03125,"ha":1389,"o":"m 100 0 l 231 0 l 231 441 l 357 441 b 831 -25 377 201 530 -25 b 1308 498 1156 -25 1308 240 b 831 1022 1308 808 1132 1022 b 357 558 551 1022 378 836 l 231 558 l 231 997 l 100 997 l 100 0 m 1177 498 b 831 91 1177 255 1064 91 b 485 498 598 91 485 255 b 831 905 485 736 612 905 b 1177 498 1050 905 1177 736 "},"S":{"x_min":66.6875,"x_max":843.890625,"ha":926,"o":"m 816 705 b 435 1023 811 815 777 1023 b 99 715 198 1023 99 870 b 307 480 99 541 243 495 l 507 433 b 715 256 668 394 715 361 b 460 88 715 113 555 88 b 190 322 334 88 190 141 l 66 322 b 166 69 66 229 83 145 b 461 -26 209 29 280 -26 b 843 275 628 -26 843 38 b 622 541 843 433 748 511 l 343 606 b 227 733 285 620 227 648 b 450 908 227 884 367 908 b 692 705 560 908 686 859 l 816 705 "},"/":{"x_min":-23,"x_max":402,"ha":386,"o":"m 402 1023 l 312 1023 l -23 -26 l 68 -26 l 402 1023 "},"":{"x_min":-93.921875,"x_max":396.078125,"ha":308,"o":"m 396 963 l 281 963 l 281 822 l 396 822 l 396 963 m 20 963 l -93 963 l -93 822 l 20 822 l 20 963 m 176 1022 l 28 1022 l 138 822 l 230 822 l 176 1022 "},"ђ":{"x_min":17.6875,"x_max":695.53125,"ha":772,"o":"m 149 0 l 272 0 l 272 397 b 423 459 292 414 348 459 b 573 176 562 459 573 308 b 392 -177 573 -12 541 -151 l 392 -285 b 695 189 657 -269 695 0 b 449 568 695 287 688 568 b 272 507 366 568 307 530 l 272 697 l 583 697 l 583 805 l 272 805 l 272 997 l 149 997 l 149 805 l 17 805 l 17 697 l 149 697 l 149 0 "},"y":{"x_min":15,"x_max":666,"ha":694,"o":"m 343 134 l 340 134 l 151 726 l 15 726 l 279 -19 b 152 -187 222 -169 215 -187 b 80 -175 119 -187 95 -180 l 80 -286 b 130 -297 99 -291 113 -297 b 409 13 284 -297 296 -280 b 666 726 501 251 582 488 l 533 726 l 343 134 "},"≈":{"x_min":94.171875,"x_max":723,"ha":833,"o":"m 143 386 b 257 487 164 436 197 487 b 409 438 318 487 365 463 b 552 390 454 413 498 390 b 723 511 634 390 679 448 l 674 608 b 554 506 646 565 611 506 b 422 555 521 506 472 530 b 264 604 371 580 316 604 b 94 483 182 604 130 554 l 143 386 m 143 94 b 257 195 164 144 197 195 b 409 147 318 195 365 172 b 552 98 454 122 498 98 b 723 219 634 98 679 156 l 674 316 b 554 215 646 273 611 215 b 422 263 521 215 472 238 b 264 312 371 288 316 312 b 94 191 182 312 130 262 l 143 94 "},"":{"x_min":-7.71875,"x_max":387,"ha":386,"o":"m 127 1063 l 252 1063 l 387 1263 l 279 1263 l 189 1129 l 99 1263 l -7 1263 l 127 1063 "},"g":{"x_min":54.015625,"x_max":678.765625,"ha":772,"o":"m 177 365 b 372 637 177 458 187 637 b 564 329 545 637 564 447 b 369 84 564 136 446 84 b 177 365 239 84 177 205 m 678 726 l 565 726 l 565 623 l 563 623 b 350 747 534 665 480 747 b 54 384 161 747 54 588 b 367 -20 54 211 124 -20 b 556 76 462 -20 524 25 l 556 81 l 558 81 l 558 51 b 356 -204 558 -34 563 -204 b 195 -88 327 -204 217 -204 l 75 -88 b 348 -305 98 -281 263 -305 b 678 59 677 -305 678 -44 l 678 726 "},"²":{"x_min":5.921875,"x_max":439.265625,"ha":463,"o":"m 108 766 b 230 895 110 801 116 895 b 344 804 320 895 348 845 b 228 668 344 727 299 706 l 147 622 b 5 390 68 577 11 512 l 439 390 l 439 475 l 108 475 b 216 572 127 506 152 537 l 277 604 b 439 801 367 650 439 695 b 240 976 439 909 352 976 b 26 766 174 976 26 956 l 108 766 "},"–":{"x_min":0,"x_max":756.78125,"ha":772,"o":"m 756 434 l 0 434 l 0 333 l 756 333 l 756 434 "},"ë":{"x_min":54.4375,"x_max":702.328125,"ha":772,"o":"m 573 227 b 389 84 568 173 502 84 b 182 323 251 84 182 172 l 702 323 b 396 747 702 580 601 747 b 54 343 160 747 54 568 b 372 -20 54 133 172 -20 b 566 29 487 -20 533 6 b 692 227 656 90 688 193 l 573 227 m 182 420 b 379 637 182 533 269 637 b 578 420 525 637 571 533 l 182 420 m 330 980 l 206 980 l 206 838 l 330 838 l 330 980 m 551 980 l 427 980 l 427 838 l 551 838 l 551 980 "},"б":{"x_min":47.640625,"x_max":709.140625,"ha":772,"o":"m 549 1006 b 462 963 539 968 519 966 l 419 962 b 134 818 295 956 209 933 b 47 404 66 711 47 519 b 121 102 47 229 85 154 b 379 -20 191 1 298 -20 b 709 369 673 -20 709 258 b 404 725 709 604 568 725 b 179 620 274 725 210 655 b 400 859 205 784 262 854 l 450 862 b 581 887 543 866 552 868 b 642 1006 632 925 639 980 l 549 1006 m 170 351 b 382 626 170 501 235 626 b 586 363 532 626 586 497 b 378 79 586 311 588 79 b 170 351 189 79 170 270 "},"ƒ":{"x_min":-15,"x_max":682,"ha":772,"o":"m 682 1002 b 575 1023 653 1013 631 1023 b 360 812 457 1023 382 911 l 322 640 l 155 640 l 155 543 l 303 543 l 216 63 b 74 -177 189 -86 164 -177 b 5 -158 46 -177 24 -168 l -15 -270 b 69 -287 5 -280 21 -287 b 347 88 200 -287 296 -193 l 428 543 l 601 543 l 601 640 l 446 640 l 473 783 b 583 918 484 836 511 918 b 661 894 609 918 631 906 l 682 1002 "},"у":{"x_min":15.15625,"x_max":666,"ha":694,"o":"m 279 -19 l 239 -122 b 152 -186 224 -162 197 -186 b 80 -173 124 -186 96 -179 l 80 -286 b 148 -294 95 -290 113 -294 b 393 -29 277 -294 310 -258 l 666 726 l 531 726 l 341 134 l 339 134 l 149 726 l 15 726 l 279 -19 "},"J":{"x_min":23.140625,"x_max":582.5625,"ha":694,"o":"m 23 320 l 23 222 b 300 -26 23 129 73 -26 b 582 269 432 -26 582 36 l 582 997 l 450 997 l 450 261 b 294 88 450 163 416 88 b 147 251 202 88 147 131 l 147 320 l 23 320 "},"Ã":{"x_min":19,"x_max":890,"ha":926,"o":"m 649 290 l 745 0 l 890 0 l 536 997 l 386 997 l 19 0 l 155 0 l 257 290 l 649 290 m 298 409 l 454 848 l 457 848 l 601 409 l 298 409 m 617 1273 b 549 1209 612 1247 604 1209 b 485 1227 538 1209 511 1216 l 455 1240 b 363 1261 427 1251 398 1261 b 221 1112 272 1261 232 1194 l 287 1112 b 351 1173 298 1148 314 1173 b 434 1152 367 1173 386 1169 l 469 1140 b 549 1122 506 1127 525 1122 b 685 1273 627 1122 676 1190 l 617 1273 "},"Ј":{"x_min":23.140625,"x_max":579.828125,"ha":694,"o":"m 449 273 b 292 91 449 133 386 91 b 145 251 185 91 145 148 l 145 320 l 23 320 l 23 241 b 285 -25 23 51 152 -25 b 579 280 438 -25 579 31 l 579 997 l 449 997 l 449 273 "},"©":{"x_min":-19.0625,"x_max":1023.5625,"ha":1024,"o":"m 503 -26 b 1023 500 784 -26 1023 195 b 503 1023 1023 801 784 1023 b -19 500 220 1023 -19 801 b 503 -26 -19 195 220 -26 m 84 500 b 503 936 84 748 268 936 b 920 500 736 936 920 748 b 503 61 920 247 736 61 b 84 500 268 61 84 247 m 681 401 b 521 269 669 323 607 269 b 321 502 397 269 321 377 b 517 730 321 631 389 730 b 681 604 602 730 665 680 l 773 604 b 515 822 754 745 646 822 b 217 501 330 822 217 686 b 521 177 217 319 336 177 b 774 401 646 177 748 263 l 681 401 "},"˘":{"x_min":18,"x_max":437.21875,"ha":463,"o":"m 371 1015 b 231 905 359 972 340 905 b 117 948 173 905 137 925 b 84 1015 96 970 90 998 l 18 1015 b 220 826 23 966 41 826 b 437 1015 337 826 422 879 l 371 1015 "},"≥":{"x_min":63.96875,"x_max":752.703125,"ha":833,"o":"m 63 116 l 752 377 l 752 494 l 63 755 l 63 638 l 598 436 l 63 233 l 63 116 m 63 -66 l 752 -66 l 752 50 l 63 50 l 63 -66 "},"ґ":{"x_min":89.828125,"x_max":506.328125,"ha":540,"o":"m 89 0 l 212 0 l 212 618 l 506 618 l 506 888 l 400 888 l 400 726 l 89 726 l 89 0 "},"D":{"x_min":110.25,"x_max":917.390625,"ha":1003,"o":"m 110 0 l 500 0 b 917 512 822 0 917 288 b 506 997 917 800 760 997 l 110 997 l 110 0 m 242 881 l 488 881 b 781 504 668 881 781 755 b 498 115 781 252 669 115 l 242 115 l 242 881 "},"ÿ":{"x_min":15.3125,"x_max":665.9375,"ha":694,"o":"m 343 134 l 340 134 l 151 726 l 15 726 l 279 -19 b 152 -187 222 -169 215 -187 b 80 -175 120 -187 95 -180 l 80 -286 b 131 -297 99 -291 113 -297 b 410 13 284 -297 297 -280 b 665 726 501 251 582 488 l 533 726 l 343 134 m 292 980 l 169 980 l 169 838 l 292 838 l 292 980 m 513 980 l 389 980 l 389 838 l 513 838 l 513 980 "},"ł":{"x_min":-27.21875,"x_max":329.390625,"ha":308,"o":"m 329 604 l 329 684 l 210 615 l 210 997 l 91 997 l 91 551 l -27 481 l -27 401 l 91 470 l 91 0 l 210 0 l 210 534 l 329 604 "},"ц":{"x_min":89.828125,"x_max":735,"ha":772,"o":"m 89 0 l 620 0 l 620 -177 l 735 -177 l 735 108 l 666 108 l 666 726 l 544 726 l 544 108 l 212 108 l 212 726 l 89 726 l 89 0 "},"Ł":{"x_min":-27.21875,"x_max":730.921875,"ha":772,"o":"m 396 722 l 235 629 l 235 997 l 103 997 l 103 558 l -27 481 l -27 401 l 103 477 l 103 0 l 730 0 l 730 119 l 235 119 l 235 548 l 396 641 l 396 722 "},"Л":{"x_min":24.5,"x_max":786.71875,"ha":900,"o":"m 656 0 l 786 0 l 786 997 l 219 997 b 198 379 216 823 209 629 b 93 91 189 151 174 91 b 24 108 66 91 42 97 l 24 -8 b 117 -25 49 -19 78 -25 b 317 197 264 -25 307 91 b 353 880 337 422 343 650 l 656 880 l 656 0 "},"":{"x_min":-23.140625,"x_max":401.53125,"ha":386,"o":"m 401 1141 l -23 1141 l -23 1062 l 401 1062 l 401 1141 "},"$":{"x_min":43.5625,"x_max":707.78125,"ha":772,"o":"m 344 569 b 182 726 262 583 182 627 b 344 886 182 810 239 886 l 344 569 m 408 428 l 481 404 b 588 250 539 386 588 328 b 408 75 588 159 529 75 l 408 428 m 684 725 b 408 987 676 947 494 980 l 408 1076 l 344 1076 l 344 987 b 62 718 182 987 62 867 b 344 443 62 525 205 477 l 344 75 b 163 296 208 97 171 147 l 43 296 b 344 -26 43 55 175 -16 l 344 -159 l 408 -159 l 408 -26 b 707 272 519 -26 707 36 b 408 555 707 466 594 499 l 408 886 b 568 725 533 862 559 799 l 684 725 "},"w":{"x_min":19,"x_max":965,"ha":1003,"o":"m 487 562 l 489 562 l 634 0 l 758 0 l 965 726 l 845 726 l 700 155 l 698 155 l 559 726 l 425 726 l 288 155 l 285 155 l 149 726 l 19 726 l 224 0 l 348 0 l 487 562 "},"∫":{"x_min":19.0625,"x_max":469.578125,"ha":504,"o":"m 469 1163 b 394 1183 455 1172 423 1183 b 261 1127 345 1183 296 1165 b 187 830 208 1069 187 983 b 206 130 187 609 206 361 b 161 -104 206 -8 187 -69 b 99 -134 145 -125 121 -134 b 38 -119 72 -134 50 -125 l 19 -202 b 111 -225 36 -212 74 -225 b 251 -148 166 -225 221 -201 b 308 129 283 -100 308 -15 b 289 819 308 359 289 601 b 334 1063 289 948 300 1023 b 402 1097 352 1088 379 1097 b 453 1083 421 1097 441 1091 l 469 1163 "},"\\":{"x_min":-22.671875,"x_max":402,"ha":386,"o":"m 310 -26 l 402 -26 l 67 1023 l -22 1023 l 310 -26 "},"о":{"x_min":47.640625,"x_max":709.140625,"ha":772,"o":"m 586 363 b 378 86 586 201 514 86 b 170 363 242 86 170 201 b 378 640 170 525 242 640 b 586 363 514 640 586 525 m 709 363 b 378 748 709 600 585 748 b 47 363 171 748 47 600 b 378 -22 47 126 171 -22 b 709 363 585 -22 709 126 "},"Д":{"x_min":24.65625,"x_max":903.9375,"ha":926,"o":"m 147 -213 l 147 0 l 781 0 l 781 -213 l 903 -213 l 903 116 l 807 116 l 807 997 l 226 997 b 197 486 224 905 222 698 b 113 116 175 286 151 202 l 24 116 l 24 -213 l 147 -213 m 672 880 l 672 116 l 249 116 b 322 493 284 218 302 287 b 348 880 336 622 348 751 l 672 880 "},"Ì":{"x_min":-17.578125,"x_max":256,"ha":386,"o":"m 256 997 l 123 997 l 123 0 l 256 0 l 256 997 m 159 1094 l 250 1094 l 129 1290 l -17 1290 l 159 1094 "},"Ç":{"x_min":59.890625,"x_max":926.921875,"ha":1003,"o":"m 360 -282 b 491 -312 396 -297 441 -312 b 651 -185 592 -312 651 -257 b 537 -80 651 -140 626 -80 b 495 -86 519 -80 510 -83 l 540 -24 b 926 366 647 -15 879 39 l 798 366 b 519 92 754 134 605 92 b 196 507 277 92 196 273 b 515 903 196 770 338 903 b 789 696 609 903 752 871 l 917 696 b 515 1023 898 863 767 1023 b 59 503 231 1023 59 810 b 476 -24 59 132 264 -17 l 406 -119 l 430 -146 b 483 -135 458 -137 470 -135 b 548 -189 502 -135 548 -146 b 472 -247 548 -240 498 -247 b 383 -226 438 -247 417 -240 l 360 -282 "},"ъ":{"x_min":17.6875,"x_max":808.5,"ha":849,"o":"m 240 0 l 560 0 b 808 226 715 0 808 86 b 549 452 808 365 715 452 l 363 452 l 363 726 l 17 726 l 17 618 l 240 618 l 240 0 m 363 352 l 525 352 b 686 226 622 352 686 316 b 536 100 686 134 622 100 l 363 100 l 363 352 "},"C":{"x_min":59.890625,"x_max":926.921875,"ha":1003,"o":"m 917 697 b 515 1023 898 863 767 1023 b 59 504 231 1023 59 811 b 499 -26 59 120 277 -26 b 926 366 573 -26 872 -9 l 798 366 b 519 93 754 134 605 93 b 196 508 277 93 196 273 b 515 904 196 770 338 904 b 789 697 609 904 752 872 l 917 697 "},"!":{"x_min":122.5,"x_max":254.53125,"ha":386,"o":"m 254 141 l 122 141 l 122 0 l 254 0 l 254 141 m 221 237 l 254 668 l 254 997 l 122 997 l 122 668 l 155 237 l 221 237 "},"ç":{"x_min":40.828125,"x_max":649.25,"ha":694,"o":"m 210 -282 b 341 -312 246 -297 291 -312 b 502 -185 442 -312 502 -257 b 387 -80 502 -140 476 -80 b 345 -86 370 -80 360 -83 l 396 -17 b 649 256 575 -1 638 148 l 533 256 b 363 84 513 145 443 84 b 168 363 198 84 168 238 b 364 637 168 492 216 637 b 533 481 465 637 518 578 l 649 481 b 382 746 639 607 568 746 b 40 342 147 746 40 567 b 330 -18 40 144 147 -4 l 257 -119 l 280 -146 b 333 -135 308 -137 321 -135 b 398 -189 352 -135 398 -146 b 322 -247 398 -240 348 -247 b 234 -226 288 -247 268 -240 l 210 -282 "},"È":{"x_min":117.0625,"x_max":838.453125,"ha":926,"o":"m 838 119 l 249 119 l 249 452 l 784 452 l 784 572 l 249 572 l 249 877 l 828 877 l 828 997 l 117 997 l 117 0 l 838 0 l 838 119 m 423 1094 l 514 1094 l 393 1290 l 246 1290 l 423 1094 "},"Й":{"x_min":100.71875,"x_max":882,"ha":1003,"o":"m 281 1254 b 491 1062 292 1151 355 1062 b 700 1254 627 1062 690 1151 l 634 1254 b 491 1145 616 1172 562 1145 b 348 1254 420 1145 366 1172 l 281 1254 m 100 0 l 251 0 l 748 811 l 751 811 l 751 0 l 882 0 l 882 997 l 730 997 l 234 190 l 231 190 l 231 997 l 100 997 l 100 0 "},"ﬁ":{"x_min":19.0625,"x_max":590.71875,"ha":694,"o":"m 356 624 l 356 726 l 236 726 l 236 816 b 307 901 236 874 255 901 b 356 898 322 901 341 899 l 356 1008 b 302 1010 337 1009 319 1010 b 117 851 185 1010 117 960 l 117 726 l 19 726 l 19 624 l 117 624 l 117 0 l 236 0 l 236 624 l 356 624 m 590 726 l 470 726 l 470 0 l 590 0 l 590 726 m 590 858 l 590 996 l 470 996 l 470 858 l 590 858 "},"X":{"x_min":26,"x_max":882,"ha":926,"o":"m 539 511 l 867 997 l 709 997 l 461 615 l 213 997 l 47 997 l 375 511 l 26 0 l 185 0 l 456 409 l 718 0 l 882 0 l 539 511 "},"ô":{"x_min":47.640625,"x_max":709.140625,"ha":772,"o":"m 47 364 b 378 -18 47 176 151 -18 b 709 364 605 -18 709 176 b 378 747 709 551 605 747 b 47 364 151 747 47 551 m 171 364 b 378 642 171 461 206 642 b 585 364 549 642 585 461 b 378 86 585 267 549 86 b 171 364 206 86 171 267 m 378 953 l 468 824 l 577 824 l 442 1019 l 315 1019 l 181 824 l 288 824 l 378 953 "},"Б":{"x_min":100.71875,"x_max":853.421875,"ha":926,"o":"m 100 0 l 544 0 b 853 293 740 0 853 116 b 517 586 853 473 745 586 l 231 586 l 231 880 l 749 880 l 749 997 l 100 997 l 100 0 m 231 469 l 498 469 b 714 293 632 469 714 425 b 526 116 714 159 632 116 l 231 116 l 231 469 "},"г":{"x_min":89.828125,"x_max":504.96875,"ha":539,"o":"m 89 0 l 212 0 l 212 618 l 504 618 l 504 726 l 89 726 l 89 0 "},"х":{"x_min":14,"x_max":667,"ha":694,"o":"m 513 0 l 667 0 l 415 372 l 656 726 l 509 726 l 348 473 l 179 726 l 26 726 l 262 372 l 14 0 l 165 0 l 332 270 l 513 0 "},"}":{"x_min":57.171875,"x_max":397.4375,"ha":464,"o":"m 397 408 b 287 584 334 408 287 483 l 287 823 b 148 1002 287 937 217 1002 l 57 1002 l 57 912 l 117 912 b 179 798 164 912 179 861 l 179 562 b 299 368 187 426 272 375 l 299 365 b 179 166 272 356 187 311 l 179 -68 b 117 -181 179 -129 164 -181 l 57 -181 l 57 -272 l 148 -272 b 287 -93 217 -272 287 -206 l 287 144 b 397 325 287 248 334 325 l 397 408 "},"â":{"x_min":49.4375,"x_max":721.828125,"ha":772,"o":"m 195 506 b 358 646 203 561 222 646 b 525 528 471 646 525 604 b 463 442 525 456 491 444 l 265 417 b 49 189 67 392 49 250 b 272 -20 49 64 141 -20 b 529 97 411 -20 483 46 b 656 -13 533 42 550 -13 b 721 0 683 -13 701 -5 l 721 89 b 682 83 708 86 693 83 b 642 126 657 83 642 96 l 642 544 b 378 747 642 731 435 747 b 84 506 203 747 90 679 l 195 506 m 523 251 b 302 81 523 154 414 81 b 173 207 212 81 173 128 b 325 325 173 299 267 317 b 523 371 474 344 504 356 l 523 251 m 378 953 l 468 824 l 577 824 l 442 1019 l 316 1019 l 181 824 l 288 824 l 378 953 "},"ø":{"x_min":38.5625,"x_max":731.375,"ha":849,"o":"m 731 721 l 689 757 l 602 657 b 378 747 548 712 475 747 b 48 364 151 747 48 551 b 125 106 48 271 73 177 l 38 6 l 80 -29 l 162 64 b 378 -18 214 13 286 -18 b 709 364 606 -18 709 177 b 637 612 709 453 686 543 l 731 721 m 205 199 b 171 364 180 254 171 318 b 378 642 171 461 207 642 b 527 569 448 642 495 611 l 205 199 m 555 518 b 585 364 578 467 585 407 b 378 86 585 267 550 86 b 237 150 313 86 267 113 l 555 518 "},"‰":{"x_min":9.53125,"x_max":1352.953125,"ha":1389,"o":"m 9 748 b 221 531 9 626 104 531 b 434 748 340 531 434 629 b 221 965 434 868 338 965 b 9 748 104 965 9 869 m 95 748 b 221 877 95 818 149 877 b 348 748 291 877 348 820 b 221 619 348 677 291 619 b 95 748 149 619 95 677 m 434 206 b 646 -9 434 84 529 -9 b 858 206 764 -9 858 87 b 646 423 858 326 763 423 b 434 206 529 423 434 327 m 519 206 b 646 336 519 276 574 336 b 773 206 715 336 773 279 b 646 77 773 136 715 77 b 519 206 574 77 519 136 m 928 206 b 1140 -9 928 84 1023 -9 b 1352 206 1259 -9 1352 87 b 1140 423 1352 326 1257 423 b 928 206 1023 423 928 327 m 1014 206 b 1140 336 1014 276 1068 336 b 1267 206 1210 336 1267 279 b 1140 77 1267 136 1210 77 b 1014 206 1068 77 1014 136 m 740 976 l 665 976 l 125 -26 l 200 -26 l 740 976 "},"Ä":{"x_min":19.328125,"x_max":890.4375,"ha":926,"o":"m 649 290 l 746 0 l 890 0 l 536 997 l 386 997 l 19 0 l 155 0 l 257 290 l 649 290 m 298 409 l 454 848 l 457 848 l 601 409 l 298 409 m 405 1251 l 282 1251 l 282 1109 l 405 1109 l 405 1251 m 626 1251 l 502 1251 l 502 1109 l 626 1109 l 626 1251 "},"Ч":{"x_min":63.96875,"x_max":785.359375,"ha":900,"o":"m 654 0 l 785 0 l 785 997 l 654 997 l 654 527 b 416 488 604 508 500 488 b 194 680 265 488 194 516 l 194 997 l 63 997 l 63 666 b 390 372 63 427 205 372 b 654 411 491 372 597 390 l 654 0 "},"—":{"x_min":0,"x_max":1361.109375,"ha":1389,"o":"m 1361 434 l 0 434 l 0 333 l 1361 333 l 1361 434 "},"N":{"x_min":103.4375,"x_max":879.28125,"ha":1003,"o":"m 751 191 l 748 191 l 259 997 l 103 997 l 103 0 l 231 0 l 231 805 l 234 805 l 730 0 l 879 0 l 879 997 l 751 997 l 751 191 "},"⁄":{"x_min":-226,"x_max":453,"ha":232,"o":"m 453 976 l 375 976 l -226 -26 l -148 -26 l 453 976 "},"2":{"x_min":35.25,"x_max":689.9375,"ha":772,"o":"m 179 626 b 372 866 183 694 191 866 b 562 690 513 866 562 768 b 386 462 562 562 488 522 l 259 387 b 35 0 131 311 42 202 l 689 0 l 689 115 l 170 115 b 334 302 175 152 204 229 l 434 358 b 689 684 576 436 689 509 b 390 976 689 866 556 976 b 59 626 287 976 59 944 l 179 626 "},"":{"x_min":19.0625,"x_max":359.328125,"ha":386,"o":"m 19 1062 l 141 1062 l 141 1204 l 19 1204 l 19 1062 m 236 1062 l 359 1062 l 359 1204 l 236 1204 l 236 1062 "},"ü":{"x_min":92.5625,"x_max":665.578125,"ha":772,"o":"m 665 0 l 665 726 l 545 726 l 545 326 b 349 84 545 220 500 84 b 212 244 272 84 212 125 l 212 726 l 92 726 l 92 204 b 323 -20 92 30 219 -20 b 549 108 438 -20 499 23 l 552 105 l 552 0 l 665 0 m 330 980 l 206 980 l 206 838 l 330 838 l 330 980 m 551 980 l 427 980 l 427 838 l 551 838 l 551 980 "},"М":{"x_min":100.71875,"x_max":1031.71875,"ha":1157,"o":"m 100 0 l 223 0 l 223 838 l 225 838 l 500 0 l 631 0 l 906 838 l 909 838 l 909 0 l 1031 0 l 1031 997 l 843 997 l 567 158 l 564 158 l 288 997 l 100 997 l 100 0 "},"ь":{"x_min":89.828125,"x_max":657.421875,"ha":694,"o":"m 89 0 l 409 0 b 657 226 564 0 657 86 b 409 452 657 365 564 452 l 212 452 l 212 726 l 89 726 l 89 0 m 212 352 l 374 352 b 534 226 470 352 534 316 b 385 100 534 134 470 100 l 212 100 l 212 352 "},"Ó":{"x_min":53.078125,"x_max":1005.859375,"ha":1081,"o":"m 869 498 b 529 93 869 263 741 93 b 189 498 317 93 189 263 b 529 904 189 733 317 904 b 869 498 741 904 869 733 m 1005 498 b 529 1023 1005 713 894 1023 b 53 498 164 1023 53 713 b 529 -26 53 283 164 -26 b 1005 498 894 -26 1005 283 m 737 1290 l 590 1290 l 469 1094 l 560 1094 l 737 1290 "},"˜":{"x_min":-5,"x_max":459.140625,"ha":463,"o":"m 391 1002 b 323 938 385 976 377 938 b 259 956 312 938 284 945 l 229 969 b 136 990 200 980 171 990 b -5 841 45 990 5 923 l 60 841 b 124 902 71 877 87 902 b 207 881 140 902 159 898 l 242 869 b 323 851 279 856 298 851 b 459 1002 400 851 449 919 l 391 1002 "},"ˇ":{"x_min":29,"x_max":425,"ha":463,"o":"m 136 1019 l 29 1019 l 163 823 l 290 823 l 425 1019 l 316 1019 l 226 890 l 136 1019 "},"Ÿ":{"x_min":19.0625,"x_max":888.8125,"ha":926,"o":"m 519 401 l 888 997 l 733 997 l 453 518 l 172 997 l 19 997 l 387 401 l 387 0 l 519 0 l 519 401 m 405 1251 l 281 1251 l 281 1109 l 405 1109 l 405 1251 m 626 1251 l 502 1251 l 502 1109 l 626 1109 l 626 1251 "},"Ў":{"x_min":31,"x_max":898,"ha":926,"o":"m 169 -5 b 266 -25 197 -16 235 -25 b 578 251 440 -25 493 52 l 898 997 l 751 997 l 486 330 l 183 997 l 31 997 l 365 295 b 397 195 394 237 397 220 b 274 108 397 147 364 108 b 169 131 214 108 190 120 l 169 -5 m 243 1254 b 452 1062 254 1151 316 1062 b 662 1254 589 1062 651 1151 l 595 1254 b 452 1145 578 1172 523 1145 b 310 1254 382 1145 327 1172 l 243 1254 "},"€":{"x_min":32.671875,"x_max":736.359375,"ha":772,"o":"m 736 872 b 481 976 694 929 601 976 b 137 616 273 976 159 843 l 68 616 l 34 516 l 132 516 l 132 418 l 66 418 l 32 318 l 140 318 b 476 -26 168 93 284 -26 b 692 44 592 -26 681 34 l 692 181 b 466 83 669 145 567 83 b 268 318 363 83 277 176 l 552 318 l 585 418 l 259 418 l 259 516 l 619 516 l 651 616 l 264 616 b 473 866 273 737 333 866 b 692 741 589 866 658 809 l 736 872 "},"в":{"x_min":101.609375,"x_max":700.5,"ha":772,"o":"m 101 0 l 424 0 b 700 219 613 0 700 83 b 578 387 700 305 652 358 b 665 533 629 422 665 466 b 405 726 665 658 579 726 l 101 726 l 101 0 m 224 327 l 410 327 b 578 213 539 327 578 284 b 410 100 578 143 539 100 l 224 100 l 224 327 m 224 626 l 425 626 b 542 522 484 626 542 601 b 409 419 542 451 490 419 l 224 419 l 224 626 "},"С":{"x_min":53.078125,"x_max":916.03125,"ha":1003,"o":"m 183 500 b 513 905 183 747 313 905 b 781 701 646 905 748 829 l 909 701 b 509 1022 898 841 775 1022 b 53 486 295 1022 53 891 b 504 -25 53 75 326 -25 b 916 356 763 -25 898 183 l 789 356 b 504 91 770 226 671 91 b 183 500 313 91 183 250 "},"Ω":{"x_min":63.96875,"x_max":910.578125,"ha":997,"o":"m 264 95 l 63 95 l 63 0 l 396 0 l 396 70 b 198 502 295 134 198 295 b 491 884 198 715 313 884 b 775 506 679 884 775 686 b 578 70 775 284 679 137 l 578 0 l 910 0 l 910 95 l 707 95 l 707 98 b 891 529 800 177 891 330 b 491 981 891 762 739 981 b 83 522 257 981 83 788 b 264 98 83 330 170 184 l 264 95 "},"ß":{"x_min":91.078125,"x_max":777.078125,"ha":849,"o":"m 91 0 l 210 0 l 210 708 b 404 905 210 826 250 905 b 611 750 541 905 611 838 b 400 593 611 668 563 593 b 368 595 389 593 381 594 l 368 486 b 421 491 385 490 400 491 b 653 297 560 491 653 443 b 421 88 653 156 570 88 b 361 93 402 88 382 90 l 361 -11 b 434 -20 381 -15 394 -20 b 777 330 628 -20 777 84 b 619 555 777 412 719 527 b 730 761 650 576 730 626 b 405 1011 730 912 606 1011 b 91 738 201 1011 91 898 l 91 0 "},"њ":{"x_min":89.828125,"x_max":1080.71875,"ha":1147,"o":"m 543 0 l 833 0 b 1080 226 988 0 1080 86 b 822 452 1080 365 988 452 l 665 452 l 665 726 l 543 726 l 543 452 l 212 452 l 212 726 l 89 726 l 89 0 l 212 0 l 212 352 l 543 352 l 543 0 m 665 352 l 797 352 b 958 226 894 352 958 316 b 808 100 958 134 894 100 l 665 100 l 665 352 "},"":{"x_min":-105.734375,"x_max":409,"ha":308,"o":"m 317 822 l 409 822 l 287 1022 l 139 1022 l 317 822 m 72 822 l 163 822 l 42 1022 l -105 1022 l 72 822 "},"s":{"x_min":43.5625,"x_max":631.5625,"ha":694,"o":"m 608 519 b 336 747 608 555 590 747 b 66 515 196 747 66 675 b 231 338 66 415 132 363 l 370 304 b 511 200 472 277 511 258 b 348 84 511 119 434 84 b 159 233 179 84 163 176 l 43 233 b 349 -20 47 145 68 -20 b 631 219 510 -20 631 69 b 431 411 631 318 579 373 l 311 441 b 182 538 219 465 182 479 b 323 641 182 629 287 641 b 492 519 475 641 491 565 l 608 519 "},"?":{"x_min":76.21875,"x_max":669.671875,"ha":772,"o":"m 196 684 b 377 904 196 744 202 904 b 541 745 509 904 541 804 b 432 552 541 666 522 647 b 303 254 337 452 303 412 l 423 254 b 541 508 420 391 455 423 b 669 737 634 598 669 645 b 381 1009 669 915 533 1009 b 183 945 308 1009 238 988 b 76 684 84 868 80 779 l 196 684 m 432 141 l 300 141 l 300 0 l 432 0 l 432 141 "},"c":{"x_min":40.828125,"x_max":649.25,"ha":694,"o":"m 649 481 b 382 747 639 608 568 747 b 40 343 147 747 40 568 b 359 -20 40 133 159 -20 b 649 256 567 -20 637 141 l 533 256 b 363 84 513 145 443 84 b 168 363 198 84 168 238 b 364 637 168 493 216 637 b 533 481 465 637 518 579 l 649 481 "},"¶":{"x_min":24.5,"x_max":676.46875,"ha":746,"o":"m 315 -240 l 415 -240 l 415 913 l 577 913 l 577 -240 l 676 -240 l 676 997 l 338 997 b 24 733 148 997 24 916 b 315 477 24 588 141 477 l 315 -240 "},"•":{"x_min":24.5,"x_max":453.25,"ha":486,"o":"m 453 498 b 238 718 453 619 356 718 b 24 498 118 718 24 619 b 238 280 24 376 119 280 b 453 498 356 280 453 377 "},"н":{"x_min":89.828125,"x_max":666.953125,"ha":772,"o":"m 89 0 l 212 0 l 212 325 l 544 325 l 544 0 l 666 0 l 666 726 l 544 726 l 544 433 l 212 433 l 212 726 l 89 726 l 89 0 "},"":{"x_min":-59,"x_max":360,"ha":308,"o":"m -59 1013 b 150 822 -48 911 14 822 b 360 1013 286 822 349 911 l 293 1013 b 150 905 275 931 221 905 b 7 1013 79 905 25 931 l -59 1013 "},"(":{"x_min":92.5625,"x_max":406.96875,"ha":463,"o":"m 322 1018 b 92 362 175 804 92 606 b 326 -287 92 102 185 -70 l 406 -287 b 220 329 298 -69 220 100 b 405 1018 220 662 289 795 l 322 1018 "},"◊":{"x_min":74,"x_max":708,"ha":799,"o":"m 708 481 l 438 1029 l 347 1029 l 74 481 l 343 -63 l 434 -63 l 708 481 m 605 479 l 418 101 b 393 31 408 84 397 50 l 388 31 b 365 102 385 48 376 75 l 176 484 l 362 858 b 388 931 373 883 382 909 l 392 931 b 418 858 397 912 408 881 l 605 479 "},"м":{"x_min":89.828125,"x_max":816.671875,"ha":925,"o":"m 89 0 l 204 0 l 204 584 l 206 584 l 394 0 l 511 0 l 699 584 l 702 584 l 702 0 l 816 0 l 816 726 l 649 726 l 458 130 l 455 130 l 268 726 l 89 726 l 89 0 "},"­":{"x_min":59.890625,"x_max":393.359375,"ha":463,"o":"m 393 447 l 59 447 l 59 322 l 393 322 l 393 447 "},"з":{"x_min":34.03125,"x_max":632.921875,"ha":694,"o":"m 273 329 b 343 333 296 331 319 333 b 510 213 460 333 510 280 b 341 86 510 136 453 86 b 156 223 257 86 170 118 l 34 223 b 343 -22 46 76 161 -22 b 632 216 483 -22 632 54 b 491 390 632 331 541 380 l 491 393 b 608 536 555 415 608 450 b 348 748 608 681 475 748 b 69 504 239 748 87 698 l 183 504 b 344 640 197 618 295 640 b 485 530 438 640 485 588 b 322 433 485 450 387 433 l 273 433 l 273 329 "},":":{"x_min":118.421875,"x_max":259.96875,"ha":386,"o":"m 259 147 l 118 147 l 118 0 l 259 0 l 259 147 m 259 716 l 118 716 l 118 569 l 259 569 l 259 716 "},"Ґ":{"x_min":100.71875,"x_max":730.921875,"ha":772,"o":"m 100 0 l 231 0 l 231 880 l 730 880 l 730 1187 l 616 1187 l 616 997 l 100 997 l 100 0 "},"і":{"x_min":89.828125,"x_max":212.328125,"ha":308,"o":"m 89 847 l 212 847 l 212 988 l 89 988 l 89 847 m 89 0 l 212 0 l 212 726 l 89 726 l 89 0 "},"Û":{"x_min":107.53125,"x_max":876.5625,"ha":1003,"o":"m 744 996 l 744 366 b 487 92 744 149 608 92 b 239 369 368 92 239 152 l 239 996 l 107 996 l 107 331 b 483 -26 107 145 220 -26 b 876 349 751 -26 876 145 l 876 996 l 744 996 m 491 1223 l 581 1094 l 690 1094 l 555 1289 l 428 1289 l 294 1094 l 401 1094 l 491 1223 "},"":{"x_min":-48,"x_max":442,"ha":386,"o":"m 172 1062 l 263 1062 l 442 1262 l 293 1262 l 172 1062 m -48 1062 l 43 1062 l 221 1262 l 73 1262 l -48 1062 "},"V":{"x_min":27,"x_max":880,"ha":926,"o":"m 455 147 l 452 147 l 173 997 l 27 997 l 383 0 l 523 0 l 880 997 l 731 997 l 455 147 "}," ":{"x_min":0,"x_max":0,"ha":386},"У":{"x_min":31,"x_max":898,"ha":926,"o":"m 169 -5 b 266 -25 197 -16 235 -25 b 578 251 440 -25 493 52 l 898 997 l 751 997 l 486 330 l 183 997 l 31 997 l 365 295 b 397 195 394 237 397 220 b 274 108 397 147 364 108 b 169 131 214 108 190 120 l 169 -5 "},"@":{"x_min":199.84375,"x_max":1181.203125,"ha":1410,"o":"m 831 566 b 628 289 831 455 744 289 b 514 423 560 289 514 344 b 719 694 514 539 598 694 b 831 566 779 694 831 634 m 873 686 b 717 794 838 764 782 794 b 402 411 527 794 402 598 b 602 189 402 290 485 189 b 766 275 666 189 726 232 l 768 276 b 855 189 771 216 809 189 b 1181 590 977 189 1181 339 b 712 1023 1181 843 964 1023 b 199 501 432 1023 199 791 b 719 -26 199 205 428 -26 b 1144 218 894 -26 1055 66 l 1053 218 b 722 59 975 120 849 59 b 299 493 484 59 299 247 b 712 937 299 739 470 937 b 1092 579 918 937 1092 801 b 899 279 1092 430 992 279 b 870 319 877 279 870 293 b 993 772 870 357 941 577 l 900 772 l 873 686 "},"¾":{"x_min":61,"x_max":1102.25,"ha":1158,"o":"m 643 130 l 923 130 l 923 0 l 1011 0 l 1011 130 l 1102 130 l 1102 211 l 1011 211 l 1011 586 l 923 586 l 643 213 l 643 130 m 921 470 l 923 470 l 923 211 l 727 211 l 921 470 m 968 976 l 891 976 l 289 -26 l 367 -26 l 968 976 m 61 569 b 154 401 66 502 85 434 b 269 375 184 386 222 375 b 496 563 431 375 496 468 b 393 698 496 641 454 681 l 393 701 b 473 822 427 711 473 747 b 281 976 473 911 401 976 b 75 784 118 976 75 870 l 159 784 b 269 895 161 833 178 895 b 378 818 363 895 378 847 b 266 725 378 744 326 725 l 229 725 l 229 654 l 261 654 b 401 554 314 654 401 652 b 270 455 401 486 349 455 b 153 569 168 455 156 520 l 61 569 "},"i":{"x_min":91.1875,"x_max":210.96875,"ha":308,"o":"m 210 726 l 91 726 l 91 0 l 210 0 l 210 726 m 210 858 l 210 997 l 91 997 l 91 858 l 210 858 "},"ќ":{"x_min":100.71875,"x_max":748.609375,"ha":772,"o":"m 100 0 l 223 0 l 223 236 l 343 350 l 590 0 l 748 0 l 431 433 l 743 726 l 582 726 l 223 381 l 223 726 l 100 726 l 100 0 m 313 822 l 404 822 l 582 1022 l 434 1022 l 313 822 "},"≤":{"x_min":64.0625,"x_max":752.796875,"ha":833,"o":"m 752 233 l 217 436 l 752 638 l 752 755 l 64 494 l 64 377 l 752 116 l 752 233 m 752 50 l 64 50 l 64 -66 l 752 -66 l 752 50 "},"ё":{"x_min":53.078125,"x_max":703.703125,"ha":772,"o":"m 577 231 b 383 86 552 165 510 86 b 183 319 259 86 185 177 l 703 319 l 703 381 b 374 748 703 629 568 748 b 53 368 236 748 53 633 b 385 -22 53 104 194 -22 b 695 231 560 -22 676 105 l 577 231 m 183 419 b 383 640 191 547 272 640 b 581 419 500 640 578 561 l 183 419 m 208 847 l 330 847 l 330 988 l 208 988 l 208 847 m 426 847 l 548 847 l 548 988 l 426 988 l 426 847 "},"m":{"x_min":88.46875,"x_max":1046.703125,"ha":1157,"o":"m 88 0 l 208 0 l 208 395 b 396 637 208 593 328 637 b 507 502 484 637 507 563 l 507 0 l 627 0 l 627 443 b 794 637 627 540 694 637 b 926 469 896 637 926 569 l 926 0 l 1046 0 l 1046 502 b 826 747 1046 706 902 747 b 608 629 715 747 668 697 b 419 747 588 668 547 747 b 204 623 291 747 230 662 l 201 623 l 201 726 l 88 726 l 88 0 "},"Е":{"x_min":100.71875,"x_max":823.46875,"ha":926,"o":"m 100 0 l 823 0 l 823 116 l 231 116 l 231 455 l 769 455 l 769 572 l 231 572 l 231 880 l 813 880 l 813 997 l 100 997 l 100 0 "},"Э":{"x_min":66.6875,"x_max":929.640625,"ha":1003,"o":"m 441 455 l 790 455 b 477 91 784 181 608 91 b 193 356 311 91 212 226 l 66 356 b 470 -25 84 183 219 -25 b 929 505 656 -25 929 86 b 481 1022 929 883 695 1022 b 81 701 215 1022 92 841 l 209 701 b 477 905 242 829 344 905 b 790 572 696 905 781 723 l 441 572 l 441 455 "},"ž":{"x_min":41.96875,"x_max":638.03125,"ha":694,"o":"m 625 626 l 625 726 l 74 726 l 74 625 l 470 625 l 41 95 l 41 0 l 638 0 l 638 101 l 201 101 l 625 626 m 250 1019 l 142 1019 l 277 823 l 403 823 l 538 1019 l 429 1019 l 340 890 l 250 1019 "},"ю":{"x_min":89.828125,"x_max":1011.3125,"ha":1081,"o":"m 888 363 b 680 86 888 201 816 86 b 472 363 544 86 472 201 b 680 640 472 525 544 640 b 888 363 816 640 888 525 m 89 0 l 212 0 l 212 319 l 349 319 b 680 -22 363 106 487 -22 b 1011 363 887 -22 1011 126 b 680 748 1011 600 887 748 b 349 419 491 748 368 623 l 212 419 l 212 726 l 89 726 l 89 0 "},"á":{"x_min":49.453125,"x_max":721.84375,"ha":772,"o":"m 195 505 b 358 645 203 561 222 645 b 525 527 471 645 525 604 b 463 441 525 455 491 444 l 265 416 b 49 188 67 391 49 250 b 272 -20 49 63 142 -20 b 529 97 411 -20 483 45 b 656 -13 534 41 550 -13 b 721 0 683 -13 701 -5 l 721 88 b 682 83 708 86 693 83 b 642 126 657 83 642 95 l 642 544 b 378 747 642 730 436 747 b 84 505 203 747 90 679 l 195 505 m 523 251 b 302 80 523 154 414 80 b 173 206 212 80 173 127 b 325 325 173 298 267 316 b 523 370 474 344 504 355 l 523 251 m 587 1019 l 440 1019 l 318 823 l 410 823 l 587 1019 "},"×":{"x_min":53,"x_max":742,"ha":811,"o":"m 328 351 l 53 70 l 122 0 l 397 279 l 672 0 l 742 70 l 468 351 l 742 631 l 672 702 l 397 423 l 123 702 l 53 631 l 328 351 "},"п":{"x_min":89.828125,"x_max":666.953125,"ha":772,"o":"m 544 0 l 666 0 l 666 726 l 89 726 l 89 0 l 212 0 l 212 618 l 544 618 l 544 0 "},"K":{"x_min":103.4375,"x_max":902.421875,"ha":926,"o":"m 235 350 l 389 500 l 730 0 l 902 0 l 484 594 l 891 997 l 709 997 l 235 513 l 235 997 l 103 997 l 103 0 l 235 0 l 235 350 "},"7":{"x_min":50.109375,"x_max":711.890625,"ha":772,"o":"m 50 836 l 577 836 b 186 0 393 618 218 268 l 318 0 b 711 848 387 436 616 747 l 711 955 l 50 955 l 50 836 "},"¨":{"x_min":54.4375,"x_max":398.8125,"ha":463,"o":"m 178 980 l 54 980 l 54 838 l 178 838 l 178 980 m 398 980 l 274 980 l 274 838 l 398 838 l 398 980 "},"Y":{"x_min":19.0625,"x_max":888.8125,"ha":926,"o":"m 519 401 l 888 997 l 733 997 l 453 518 l 172 997 l 19 997 l 387 401 l 387 0 l 519 0 l 519 401 "},"E":{"x_min":117.0625,"x_max":838.453125,"ha":926,"o":"m 838 119 l 249 119 l 249 452 l 784 452 l 784 572 l 249 572 l 249 877 l 828 877 l 828 997 l 117 997 l 117 0 l 838 0 l 838 119 "},"Ô":{"x_min":53.078125,"x_max":1005.859375,"ha":1081,"o":"m 869 498 b 529 92 869 263 741 92 b 189 498 317 92 189 263 b 529 903 189 733 317 903 b 869 498 741 903 869 733 m 1005 498 b 529 1023 1005 713 894 1023 b 53 498 164 1023 53 713 b 529 -26 53 283 164 -26 b 1005 498 894 -26 1005 283 m 529 1223 l 619 1094 l 728 1094 l 593 1289 l 466 1289 l 332 1094 l 439 1094 l 529 1223 "},"‹":{"x_min":120.09375,"x_max":333.796875,"ha":463,"o":"m 333 272 l 190 384 l 333 497 l 333 619 l 120 448 l 120 320 l 333 150 l 333 272 "},"Ï":{"x_min":17.6875,"x_max":362.0625,"ha":386,"o":"m 255 997 l 123 997 l 123 0 l 255 0 l 255 997 m 141 1251 l 17 1251 l 17 1109 l 141 1109 l 141 1251 m 362 1251 l 238 1251 l 238 1109 l 362 1109 l 362 1251 "},"Є":{"x_min":53.078125,"x_max":916.03125,"ha":1003,"o":"m 789 356 b 504 91 770 226 671 91 b 191 455 374 91 198 181 l 541 455 l 541 572 l 191 572 b 513 905 201 723 294 905 b 781 701 646 905 748 829 l 909 701 b 509 1022 898 841 775 1022 b 53 486 295 1022 53 891 b 504 -25 53 75 326 -25 b 916 356 763 -25 898 183 l 789 356 "},"±":{"x_min":53.078125,"x_max":741.8125,"ha":811,"o":"m 348 479 l 53 479 l 53 377 l 348 377 l 348 154 l 447 154 l 447 377 l 741 377 l 741 479 l 447 479 l 447 702 l 348 702 l 348 479 m 53 0 l 741 0 l 741 101 l 53 101 l 53 0 "},"ì":{"x_min":-17.6875,"x_max":250.4375,"ha":386,"o":"m 249 726 l 129 726 l 129 0 l 249 0 l 249 726 m 159 823 l 250 823 l 129 1019 l -17 1019 l 159 823 "},"|":{"x_min":127.9375,"x_max":227.3125,"ha":361,"o":"m 127 -26 l 227 -26 l 227 1023 l 127 1023 l 127 -26 "},"§":{"x_min":59.984375,"x_max":697.28125,"ha":772,"o":"m 626 769 b 376 1023 626 975 485 1023 b 132 787 198 1023 132 890 b 196 648 132 733 149 700 b 59 429 117 601 59 547 b 148 259 59 387 74 309 l 433 65 b 508 -44 481 33 508 2 b 365 -159 508 -144 415 -159 b 234 -4 243 -159 234 -50 l 114 -4 b 382 -265 114 -188 229 -265 b 627 -41 497 -265 627 -184 b 557 116 627 27 599 70 b 697 338 626 161 697 222 b 549 561 697 452 632 511 l 350 680 b 251 805 289 718 251 754 b 376 918 251 888 323 918 b 510 769 502 918 508 813 l 626 769 m 500 445 b 584 312 546 416 584 373 b 490 172 584 241 542 206 l 234 341 b 172 459 216 352 172 386 b 263 594 172 525 210 566 l 500 445 "},"џ":{"x_min":89.828125,"x_max":666.953125,"ha":772,"o":"m 89 0 l 317 0 l 317 -177 l 439 -177 l 439 0 l 666 0 l 666 726 l 544 726 l 544 108 l 212 108 l 212 726 l 89 726 l 89 0 "},"љ":{"x_min":17.6875,"x_max":1103.859375,"ha":1174,"o":"m 559 0 l 856 0 b 1103 226 1011 0 1103 86 b 845 452 1103 365 1011 452 l 681 452 l 681 726 l 168 726 l 155 291 b 70 86 149 125 119 86 b 17 98 51 86 36 91 l 17 0 b 93 -22 27 -6 44 -22 b 279 269 225 -22 273 86 l 289 618 l 559 618 l 559 0 m 681 352 l 818 352 b 978 226 914 352 978 316 b 828 100 978 134 914 100 l 681 100 l 681 352 "},"й":{"x_min":84.34375,"x_max":672.65625,"ha":772,"o":"m 84 0 l 224 0 l 547 543 l 550 543 l 550 0 l 672 0 l 672 726 l 532 726 l 209 183 l 206 183 l 206 726 l 84 726 l 84 0 m 168 1022 b 378 830 179 919 242 830 b 588 1022 514 830 577 919 l 521 1022 b 378 913 503 940 449 913 b 235 1022 307 913 253 940 l 168 1022 "},"q":{"x_min":47.640625,"x_max":672.390625,"ha":772,"o":"m 672 726 l 559 726 l 559 623 l 556 623 b 344 747 528 665 473 747 b 47 384 155 747 47 588 b 360 -20 47 211 118 -20 b 549 76 455 -20 518 25 l 552 76 l 552 -287 l 672 -287 l 672 726 m 558 329 b 363 84 558 136 439 84 b 171 365 232 84 171 205 b 366 637 171 458 181 637 b 558 329 539 637 558 447 "},"b":{"x_min":78.9375,"x_max":703.703125,"ha":772,"o":"m 191 0 l 191 90 l 194 90 b 390 -20 219 50 269 -20 b 703 384 632 -20 703 211 b 406 747 703 588 596 747 b 201 634 323 745 253 711 l 198 634 l 198 997 l 78 997 l 78 0 l 191 0 m 579 365 b 387 84 579 205 518 84 b 193 329 311 84 193 136 b 385 637 193 447 212 637 b 579 365 570 637 579 458 "},"ﬂ":{"x_min":19.0625,"x_max":588,"ha":694,"o":"m 356 625 l 356 726 l 236 726 l 236 816 b 307 901 236 875 255 901 b 356 898 322 901 341 900 l 356 1008 b 302 1011 337 1009 319 1011 b 117 851 185 1011 117 961 l 117 726 l 19 726 l 19 625 l 117 625 l 117 0 l 236 0 l 236 625 l 356 625 m 588 997 l 468 997 l 468 0 l 588 0 l 588 997 "},"Ж":{"x_min":13.609375,"x_max":1350.21875,"ha":1392,"o":"m 747 997 l 616 997 l 616 569 l 575 569 l 194 997 l 19 997 l 461 516 l 13 0 l 197 0 l 575 456 l 616 456 l 616 0 l 747 0 l 747 456 l 788 456 l 1165 0 l 1350 0 l 910 522 l 1350 997 l 1165 997 l 788 569 l 747 569 l 747 997 "},"®":{"x_min":-19.0625,"x_max":1023.5625,"ha":1024,"o":"m 503 -25 b 1023 501 784 -25 1023 197 b 503 1025 1023 802 784 1025 b -19 501 220 1025 -19 802 b 503 -25 -19 197 220 -25 m 84 501 b 503 937 84 750 268 937 b 920 501 736 937 920 750 b 503 62 920 248 736 62 b 84 501 268 62 84 248 m 394 459 l 498 459 l 654 197 l 755 197 l 586 463 b 740 630 673 475 740 522 b 530 802 740 750 671 802 l 304 802 l 304 197 l 394 197 l 394 459 m 394 537 l 394 725 l 517 725 b 646 636 579 725 646 711 b 502 537 646 543 578 537 l 394 537 "},"Н":{"x_min":100.71875,"x_max":882,"ha":1003,"o":"m 100 0 l 231 0 l 231 469 l 751 469 l 751 0 l 882 0 l 882 997 l 751 997 l 751 586 l 231 586 l 231 997 l 100 997 l 100 0 "},"ф":{"x_min":46.28125,"x_max":1086.171875,"ha":1156,"o":"m 504 290 b 348 77 504 155 449 77 b 168 363 205 77 170 241 b 351 640 168 515 220 640 b 504 426 432 640 504 563 l 504 290 m 504 -286 l 627 -286 l 627 87 l 630 87 b 812 -22 680 -4 743 -22 b 1086 368 951 -22 1086 112 b 813 748 1086 555 1008 748 b 630 640 715 748 661 684 l 627 640 l 627 997 l 504 997 l 504 640 l 502 640 b 318 748 470 684 416 748 b 46 368 123 748 46 555 b 319 -22 46 112 181 -22 b 502 87 389 -22 451 -4 l 504 87 l 504 -286 m 781 77 b 627 290 683 77 627 155 l 627 426 b 781 640 627 563 699 640 b 963 363 911 640 963 515 b 781 77 963 241 928 77 "},"л":{"x_min":17.6875,"x_max":691.453125,"ha":797,"o":"m 568 0 l 691 0 l 691 726 l 168 726 l 153 291 b 69 86 149 126 119 86 b 17 98 50 86 35 91 l 17 0 b 93 -22 27 -8 44 -22 b 279 269 220 -22 272 79 l 289 618 l 568 618 l 568 0 "},"L":{"x_min":103.4375,"x_max":730.921875,"ha":772,"o":"m 235 997 l 103 997 l 103 0 l 730 0 l 730 119 l 235 119 l 235 997 "},"Щ":{"x_min":100.71875,"x_max":1264.46875,"ha":1311,"o":"m 100 0 l 1141 0 l 1141 -213 l 1264 -213 l 1264 116 l 1184 116 l 1184 997 l 1053 997 l 1053 116 l 707 116 l 707 997 l 577 997 l 577 116 l 231 116 l 231 997 l 100 997 l 100 0 "},"":{"x_min":-55.8125,"x_max":434.1875,"ha":386,"o":"m -55 1062 l 58 1062 l 58 1204 l -55 1204 l -55 1062 m 319 1062 l 434 1062 l 434 1204 l 319 1204 l 319 1062 m 110 1062 l 201 1062 l 311 1262 l 163 1262 l 110 1062 "}," ":{"x_min":0,"x_max":0,"ha":386},"∑":{"x_min":30.78125,"x_max":722.140625,"ha":768,"o":"m 722 -133 l 722 -23 l 175 -23 l 175 -19 l 519 431 l 202 861 l 202 866 l 701 866 l 701 965 l 45 965 l 45 884 l 390 415 l 30 -56 l 30 -133 l 722 -133 "},"À":{"x_min":19,"x_max":890,"ha":926,"o":"m 649 290 l 745 0 l 890 0 l 536 997 l 386 997 l 19 0 l 155 0 l 257 290 l 649 290 m 298 409 l 454 848 l 457 848 l 601 409 l 298 409 m 423 1094 l 514 1094 l 393 1290 l 246 1290 l 423 1094 "},"+":{"x_min":53.078125,"x_max":741.8125,"ha":811,"o":"m 348 401 l 53 401 l 53 300 l 348 300 l 348 0 l 447 0 l 447 300 l 741 300 l 741 401 l 447 401 l 447 701 l 348 701 l 348 401 "},"½":{"x_min":58.5,"x_max":1052.265625,"ha":1158,"o":"m 839 976 l 762 976 l 160 -26 l 238 -26 l 839 976 m 205 801 l 205 390 l 302 390 l 302 976 l 225 976 b 58 865 201 880 159 872 l 58 801 l 205 801 m 720 376 b 842 505 722 411 728 505 b 956 413 933 505 961 455 b 841 277 956 337 912 316 l 759 231 b 617 0 680 187 623 122 l 1052 0 l 1052 84 l 720 84 b 828 181 739 116 764 147 l 890 213 b 1052 411 980 259 1052 305 b 853 586 1052 519 965 586 b 638 376 786 586 638 566 l 720 376 "},"Ë":{"x_min":117.0625,"x_max":838.453125,"ha":926,"o":"m 838 119 l 249 119 l 249 452 l 784 452 l 784 572 l 249 572 l 249 877 l 828 877 l 828 997 l 117 997 l 117 0 l 838 0 l 838 119 m 405 1251 l 281 1251 l 281 1109 l 405 1109 l 405 1251 m 626 1251 l 502 1251 l 502 1109 l 626 1109 l 626 1251 "},"'":{"x_min":80.3125,"x_max":179.671875,"ha":265,"o":"m 80 643 l 179 643 l 179 997 l 80 997 l 80 643 "},"Š":{"x_min":66.6875,"x_max":843.890625,"ha":926,"o":"m 816 705 b 435 1023 811 815 777 1023 b 99 715 198 1023 99 870 b 307 480 99 541 243 495 l 507 433 b 715 256 668 394 715 361 b 460 88 715 113 555 88 b 190 322 334 88 190 141 l 66 322 b 166 69 66 229 83 145 b 461 -26 209 29 280 -26 b 843 275 628 -26 843 38 b 622 541 843 433 748 511 l 343 606 b 227 733 285 620 227 648 b 450 908 227 884 367 908 b 692 705 560 908 686 859 l 816 705 m 363 1290 l 255 1290 l 390 1094 l 517 1094 l 651 1290 l 543 1290 l 453 1161 l 363 1290 "},"˛":{"x_min":99.359375,"x_max":390.640625,"ha":463,"o":"m 367 -226 b 279 -247 333 -240 313 -247 b 202 -177 253 -247 202 -240 b 338 -5 202 -108 227 -68 l 338 0 l 247 0 b 99 -184 119 -36 99 -140 b 259 -312 99 -256 159 -312 b 390 -281 317 -312 371 -290 l 367 -226 "},"Р":{"x_min":100.71875,"x_max":824.828125,"ha":926,"o":"m 231 530 l 231 880 l 498 880 b 694 705 637 880 694 819 b 498 530 694 591 637 530 l 231 530 m 100 0 l 231 0 l 231 413 l 511 413 b 824 705 725 413 824 530 b 511 997 824 880 725 997 l 100 997 l 100 0 "},"щ":{"x_min":89.828125,"x_max":1037.171875,"ha":1081,"o":"m 922 -177 l 1037 -177 l 1037 108 l 969 108 l 969 726 l 846 726 l 846 108 l 590 108 l 590 726 l 468 726 l 468 108 l 212 108 l 212 726 l 89 726 l 89 0 l 922 0 l 922 -177 "},"ð":{"x_min":48.125,"x_max":710.125,"ha":772,"o":"m 171 353 b 378 621 171 429 204 621 b 585 353 552 621 585 429 b 378 85 585 276 552 85 b 171 353 204 85 171 276 m 637 968 l 574 1024 l 430 953 b 306 1024 393 982 351 1005 l 205 973 b 326 901 248 955 290 930 l 166 822 l 223 764 l 392 850 b 543 653 449 803 511 732 l 540 650 b 359 726 476 721 404 726 b 48 353 156 726 48 536 b 389 -20 48 169 151 -20 b 710 414 529 -20 710 80 b 492 897 710 591 631 767 l 637 968 "},"℮":{"x_min":45.640625,"x_max":1137.25,"ha":1208,"o":"m 1137 459 l 1137 473 b 590 975 1137 750 892 975 b 45 473 289 975 45 750 b 590 -26 45 197 289 -26 b 1021 166 765 -26 924 50 l 943 166 b 591 1 858 66 733 1 b 257 150 460 1 343 59 b 245 180 249 158 245 169 l 245 454 b 252 459 245 458 248 459 l 1137 459 m 935 495 b 930 486 935 491 934 486 l 252 486 b 245 495 248 486 245 491 l 245 763 b 259 797 245 776 249 788 b 591 944 345 886 462 944 b 923 802 720 944 837 888 b 935 769 931 793 935 781 l 935 495 "},"ı":{"x_min":129.3125,"x_max":249.078125,"ha":386,"o":"m 249 726 l 129 726 l 129 0 l 249 0 l 249 726 "},"ä":{"x_min":49,"x_max":721.390625,"ha":772,"o":"m 194 505 b 357 645 202 561 221 645 b 525 527 470 645 525 604 b 462 441 525 455 491 444 l 265 416 b 49 188 66 391 49 250 b 272 -20 49 63 141 -20 b 529 97 411 -20 483 45 b 656 -13 533 41 549 -13 b 721 0 683 -13 700 -5 l 721 88 b 681 83 707 86 692 83 b 642 126 657 83 642 95 l 642 544 b 378 747 642 730 435 747 b 84 505 202 747 89 679 l 194 505 m 522 251 b 302 80 522 154 413 80 b 172 206 212 80 172 127 b 325 325 172 298 266 316 b 522 370 473 344 503 355 l 522 251 m 330 980 l 206 980 l 206 838 l 330 838 l 330 980 m 551 980 l 427 980 l 427 838 l 551 838 l 551 980 "},"Т":{"x_min":19.0625,"x_max":813.953125,"ha":849,"o":"m 19 880 l 351 880 l 351 0 l 481 0 l 481 880 l 813 880 l 813 997 l 19 997 l 19 880 "},"¹":{"x_min":58.53125,"x_max":302.171875,"ha":463,"o":"m 205 801 l 205 390 l 302 390 l 302 976 l 225 976 b 58 865 201 880 159 872 l 58 801 l 205 801 "},"£":{"x_min":44.625,"x_max":733.25,"ha":772,"o":"m 277 527 b 207 720 232 610 207 666 b 402 891 207 775 252 891 b 588 692 514 891 588 807 l 588 679 l 708 679 l 708 700 b 416 996 708 845 621 996 b 80 713 153 996 80 828 b 138 527 80 642 114 578 l 44 527 l 44 439 l 190 439 b 216 339 199 417 216 374 b 50 80 216 291 191 175 l 116 -14 b 275 40 167 17 224 40 b 560 -20 376 40 478 -20 b 733 44 625 -20 676 0 l 677 135 b 574 92 657 114 610 92 b 345 141 516 92 429 141 b 167 89 278 141 217 118 l 165 91 b 329 347 277 167 329 268 b 316 439 329 386 323 413 l 504 439 l 504 527 l 277 527 "},"W":{"x_min":22,"x_max":1263,"ha":1311,"o":"m 641 826 l 643 826 l 867 0 l 1005 0 l 1263 997 l 1117 997 l 935 186 l 932 186 l 713 997 l 569 997 l 349 186 l 347 186 l 164 997 l 22 997 l 276 0 l 415 0 l 641 826 "},"а":{"x_min":57.171875,"x_max":730.921875,"ha":772,"o":"m 202 508 b 368 648 209 601 261 648 b 532 525 473 648 532 612 b 470 440 532 468 509 444 l 270 415 b 57 187 164 402 57 337 b 274 -22 57 50 166 -22 b 536 95 405 -22 476 29 b 665 -9 543 18 581 -9 b 730 1 692 -9 710 -4 l 730 87 b 691 81 717 84 703 81 b 651 125 664 81 651 101 l 651 547 b 381 748 651 693 518 748 b 88 508 213 748 93 686 l 202 508 m 529 252 b 308 77 529 127 381 77 b 179 205 232 77 179 122 b 332 323 179 277 243 311 b 529 369 411 334 491 340 l 529 252 "},"ә":{"x_min":53.078125,"x_max":703.703125,"ha":772,"o":"m 179 494 b 372 640 204 561 246 640 b 573 406 496 640 571 548 l 53 406 l 53 344 b 382 -22 53 97 187 -22 b 703 358 519 -22 703 93 b 371 748 703 622 562 748 b 61 494 196 748 80 620 l 179 494 m 573 306 b 372 86 564 179 484 86 b 175 306 255 86 178 165 l 573 306 "},"v":{"x_min":11,"x_max":670,"ha":694,"o":"m 337 134 l 335 134 l 149 726 l 11 726 l 271 0 l 399 0 l 670 726 l 539 726 l 337 134 "},">":{"x_min":64.828125,"x_max":729.046875,"ha":811,"o":"m 64 576 l 595 351 l 64 126 l 64 15 l 729 302 l 729 399 l 64 687 l 64 576 "},"Ї":{"x_min":19.0625,"x_max":359.328125,"ha":386,"o":"m 123 0 l 254 0 l 254 997 l 123 997 l 123 0 m 19 1062 l 141 1062 l 141 1204 l 19 1204 l 19 1062 m 236 1062 l 359 1062 l 359 1204 l 236 1204 l 236 1062 "},"û":{"x_min":93.171875,"x_max":665.828125,"ha":772,"o":"m 665 0 l 665 726 l 546 726 l 546 326 b 350 85 546 221 501 85 b 212 244 272 85 212 125 l 212 726 l 93 726 l 93 204 b 324 -20 93 31 219 -20 b 550 108 438 -20 499 24 l 552 106 l 552 0 l 665 0 m 378 953 l 468 824 l 577 824 l 442 1019 l 316 1019 l 181 824 l 289 824 l 378 953 "},"Ð":{"x_min":0,"x_max":917.390625,"ha":1003,"o":"m 503 572 l 242 572 l 242 881 l 488 881 b 781 504 668 881 781 755 b 498 115 781 252 669 115 l 242 115 l 242 452 l 503 452 l 503 572 m 0 452 l 110 452 l 110 0 l 500 0 b 917 512 896 0 917 427 b 506 997 917 800 760 997 l 110 997 l 110 572 l 0 572 l 0 452 "},"ˉ":{"x_min":13.609375,"x_max":439.640625,"ha":463,"o":"m 439 950 l 13 950 l 13 870 l 439 870 l 439 950 "},"Х":{"x_min":25,"x_max":883,"ha":926,"o":"m 187 0 l 454 409 l 720 0 l 883 0 l 535 511 l 863 997 l 701 997 l 454 615 l 206 997 l 44 997 l 372 511 l 25 0 l 187 0 "},"r":{"x_min":104.8125,"x_max":451.890625,"ha":463,"o":"m 224 422 b 406 616 224 527 295 616 l 451 616 l 451 743 b 420 747 442 745 435 747 b 220 605 330 747 268 690 l 217 605 l 217 726 l 104 726 l 104 0 l 224 0 l 224 422 "},"ж":{"x_min":14.96875,"x_max":1046.703125,"ha":1083,"o":"m 593 726 l 470 726 l 470 429 l 435 429 l 178 726 l 29 726 l 334 381 l 14 0 l 166 0 l 435 330 l 470 330 l 470 0 l 593 0 l 593 330 l 628 330 l 895 0 l 1046 0 l 729 381 l 1035 726 l 888 726 l 628 429 l 593 429 l 593 726 "},"x":{"x_min":15,"x_max":667,"ha":694,"o":"m 416 373 l 657 726 l 510 726 l 345 470 l 181 726 l 27 726 l 265 373 l 15 0 l 166 0 l 337 273 l 514 0 l 667 0 l 416 373 "},"Ѳ":{"x_min":53.078125,"x_max":1005.859375,"ha":1081,"o":"m 1005 498 b 529 1022 1005 808 830 1022 b 53 498 228 1022 53 808 b 529 -25 53 240 204 -25 b 1005 498 854 -25 1005 240 m 875 455 b 529 91 862 236 747 91 b 183 455 311 91 196 236 l 875 455 m 186 572 b 529 905 208 769 333 905 b 872 572 725 905 850 769 l 186 572 "},"è":{"x_min":54.4375,"x_max":702.328125,"ha":772,"o":"m 573 227 b 389 84 568 173 502 84 b 182 323 251 84 182 172 l 702 323 b 396 747 702 580 601 747 b 54 343 160 747 54 568 b 372 -20 54 133 172 -20 b 566 29 487 -20 533 6 b 692 227 656 90 688 193 l 573 227 m 182 420 b 379 637 182 533 269 637 b 578 420 525 637 571 533 l 182 420 m 348 823 l 439 823 l 318 1019 l 171 1019 l 348 823 "},"Ø":{"x_min":53,"x_max":1007.046875,"ha":1081,"o":"m 802 753 b 869 498 846 687 869 598 b 529 93 869 264 741 93 b 295 191 431 93 352 129 l 802 753 m 258 237 b 189 498 213 308 189 397 b 529 903 189 733 316 903 b 767 802 628 903 710 866 l 258 237 m 1007 981 l 964 1023 l 854 899 b 529 1023 782 973 676 1023 b 53 498 164 1023 53 713 b 168 137 53 384 84 244 l 55 12 l 99 -26 l 208 94 b 529 -26 281 22 386 -26 b 1005 498 894 -26 1005 283 b 894 855 1005 610 975 748 l 1007 981 "},"с":{"x_min":47.640625,"x_max":649.25,"ha":694,"o":"m 534 255 b 362 77 517 143 447 77 b 170 352 242 77 170 161 b 370 640 170 523 235 640 b 534 481 468 640 522 580 l 649 481 b 356 748 641 593 581 748 b 47 359 191 748 47 600 b 344 -22 47 66 217 -22 b 649 255 574 -22 638 148 l 534 255 "},"÷":{"x_min":53.078125,"x_max":741.8125,"ha":811,"o":"m 741 300 l 741 401 l 53 401 l 53 300 l 741 300 m 304 633 b 397 538 304 581 348 538 b 490 633 447 538 490 586 b 397 727 490 684 447 727 b 304 633 348 727 304 686 m 304 68 b 397 -26 304 16 348 -26 b 490 68 447 -26 490 20 b 397 162 490 119 447 162 b 304 68 348 162 304 120 "},"μ":{"x_min":92.5625,"x_max":665.578125,"ha":803,"o":"m 665 0 l 665 726 l 545 726 l 545 326 b 349 84 545 220 500 84 b 212 244 272 84 212 125 l 212 726 l 92 726 l 92 204 l 92 -287 l 212 -287 l 212 26 l 215 26 b 323 -20 246 -15 296 -20 b 549 108 438 -20 499 23 l 552 105 l 552 0 l 665 0 "},"h":{"x_min":88.46875,"x_max":668.3125,"ha":772,"o":"m 668 494 b 419 747 668 701 529 747 b 210 629 304 747 245 675 l 208 629 l 208 997 l 88 997 l 88 0 l 208 0 l 208 395 b 406 637 208 579 308 637 b 548 475 521 637 548 573 l 548 0 l 668 0 l 668 494 "},".":{"x_min":118.421875,"x_max":259.96875,"ha":386,"o":"m 259 147 l 118 147 l 118 0 l 259 0 l 259 147 "},"f":{"x_min":19.0625,"x_max":356.609375,"ha":386,"o":"m 356 625 l 356 726 l 236 726 l 236 816 b 307 901 236 875 255 901 b 356 898 322 901 341 900 l 356 1008 b 302 1011 337 1009 319 1011 b 117 851 185 1011 117 961 l 117 726 l 19 726 l 19 625 l 117 625 l 117 0 l 236 0 l 236 625 l 356 625 "},"“":{"x_min":51.71875,"x_max":417.859375,"ha":463,"o":"m 417 800 l 345 800 b 417 941 345 847 347 930 l 417 1007 b 276 788 307 980 276 895 l 276 652 l 417 652 l 417 800 m 193 800 l 121 800 b 193 941 121 847 122 930 l 193 1007 b 51 788 83 980 51 895 l 51 652 l 193 652 l 193 800 "},"A":{"x_min":19,"x_max":890,"ha":926,"o":"m 649 290 l 745 0 l 890 0 l 536 997 l 386 997 l 19 0 l 155 0 l 257 290 l 649 290 m 298 409 l 454 848 l 457 848 l 601 409 l 298 409 "},"‘":{"x_min":88.46875,"x_max":230.03125,"ha":308,"o":"m 230 800 l 157 800 b 230 941 157 847 159 930 l 230 1007 b 88 788 119 980 88 895 l 88 652 l 230 652 l 230 800 "},"O":{"x_min":53.078125,"x_max":1005.859375,"ha":1081,"o":"m 869 498 b 529 93 869 263 741 93 b 189 498 317 93 189 263 b 529 904 189 733 317 904 b 869 498 741 904 869 733 m 1005 498 b 529 1023 1005 713 894 1023 b 53 498 164 1023 53 713 b 529 -26 53 283 164 -26 b 1005 498 894 -26 1005 283 "},"π":{"x_min":10.890625,"x_max":758.140625,"ha":799,"o":"m 747 620 l 758 719 l 210 719 b 10 680 104 719 44 704 l 27 604 b 176 620 55 613 95 620 b 80 0 170 440 130 151 l 191 0 b 289 620 242 133 281 447 l 525 620 l 525 195 b 548 0 525 84 534 23 l 658 0 b 639 204 649 37 639 91 l 639 620 l 747 620 "},"3":{"x_min":46.28125,"x_max":710.5,"ha":772,"o":"m 304 450 b 359 451 322 450 341 451 b 582 272 441 451 582 436 b 374 83 582 159 496 83 b 170 298 196 83 174 206 l 46 298 b 189 16 54 186 83 73 b 366 -26 235 -8 295 -26 b 710 287 609 -26 710 127 b 551 515 710 418 643 484 l 551 518 b 673 719 602 534 673 594 b 378 976 673 868 563 976 b 69 656 126 976 69 800 l 186 656 b 372 866 191 725 202 866 b 549 712 515 866 549 770 b 367 552 549 590 460 552 b 304 555 347 552 325 554 l 304 450 "},"9":{"x_min":56.71875,"x_max":699.171875,"ha":772,"o":"m 357 326 b 576 443 446 326 541 368 l 579 440 b 349 75 549 187 480 75 b 187 234 251 75 194 136 l 67 234 b 352 -26 67 140 127 -26 b 699 523 681 -26 699 419 b 364 976 699 681 669 976 b 56 641 162 976 56 819 b 357 326 56 447 180 326 m 375 436 b 180 647 294 436 180 459 b 365 866 180 777 254 866 b 558 658 503 866 558 769 b 375 436 558 465 437 436 "},"l":{"x_min":91.1875,"x_max":210.96875,"ha":308,"o":"m 210 997 l 91 997 l 91 0 l 210 0 l 210 997 "},"4":{"x_min":34.03125,"x_max":711.859375,"ha":772,"o":"m 711 237 l 711 343 l 571 343 l 571 976 l 472 976 l 34 356 l 34 237 l 451 237 l 451 0 l 571 0 l 571 237 l 711 237 m 449 786 l 451 786 l 451 343 l 144 343 l 449 786 "},"Ъ":{"x_min":19.0625,"x_max":1080.71875,"ha":1157,"o":"m 348 0 l 771 0 b 1080 293 967 0 1080 116 b 739 586 1080 473 973 586 l 479 586 l 479 997 l 19 997 l 19 880 l 348 880 l 348 0 m 479 469 l 725 469 b 941 293 860 469 941 425 b 754 116 941 159 860 116 l 479 116 l 479 469 "},"Ü":{"x_min":107.53125,"x_max":876.5625,"ha":1003,"o":"m 744 997 l 744 366 b 487 93 744 150 608 93 b 239 369 368 93 239 152 l 239 997 l 107 997 l 107 331 b 483 -26 107 145 220 -26 b 876 350 751 -26 876 145 l 876 997 l 744 997 m 443 1251 l 319 1251 l 319 1109 l 443 1109 l 443 1251 m 664 1251 l 540 1251 l 540 1109 l 664 1109 l 664 1251 "},"à":{"x_min":49,"x_max":721.390625,"ha":772,"o":"m 194 505 b 357 645 202 561 221 645 b 525 527 470 645 525 604 b 462 441 525 455 491 444 l 265 416 b 49 188 66 391 49 250 b 272 -20 49 63 141 -20 b 529 97 411 -20 483 45 b 656 -13 533 41 549 -13 b 721 0 683 -13 700 -5 l 721 88 b 681 83 707 86 692 83 b 642 126 657 83 642 95 l 642 544 b 378 747 642 730 435 747 b 84 505 202 747 89 679 l 194 505 m 522 251 b 302 80 522 154 413 80 b 172 206 212 80 172 127 b 325 325 172 298 266 316 b 522 370 473 344 503 355 l 522 251 m 348 823 l 439 823 l 318 1019 l 171 1019 l 348 823 "},"ó":{"x_min":47.359375,"x_max":708.859375,"ha":772,"o":"m 47 363 b 378 -19 47 176 150 -19 b 708 363 605 -19 708 176 b 378 747 708 551 605 747 b 47 363 150 747 47 551 m 171 363 b 378 641 171 461 206 641 b 585 363 549 641 585 461 b 378 86 585 266 549 86 b 171 363 206 86 171 266 m 586 1019 l 439 1019 l 318 823 l 409 823 l 586 1019 "}}}
